<svg version="1.1" id="Layer_1" xmlns="http://www.w3.org/2000/svg" xmlns:xlink="http://www.w3.org/1999/xlink" x="0px" y="0px"
	 width="100%" viewBox="0 0 768 768" enable-background="new 0 0 768 768" xml:space="preserve">
<path fill="currentColor" opacity="1.000000" stroke="none" 
	d="
M422.836060,303.042908 
	C415.197174,289.043213 413.664825,274.117615 413.371674,258.765167 
	C407.106354,269.931824 399.409607,280.334564 399.881073,294.042786 
	C400.092285,300.184265 399.972656,306.432159 399.077423,312.495026 
	C397.636292,322.254883 390.335266,328.205688 383.309723,334.079651 
	C381.679657,335.442535 379.723145,334.230835 378.336151,332.970551 
	C370.202576,325.580017 362.574066,318.015533 363.932037,305.500275 
	C365.475708,291.273834 361.782166,278.379791 354.597778,265.930176 
	C346.614044,252.095505 339.679504,237.637878 332.654175,223.272491 
	C325.540100,208.725616 314.332275,199.479691 298.783691,195.219894 
	C293.974823,193.902435 289.160553,192.463181 284.735504,190.070114 
	C276.412537,185.569046 272.005646,175.690674 274.018646,166.208038 
	C275.963104,157.048141 282.467346,151.117310 292.096497,150.237427 
	C298.105591,149.688324 303.393219,151.760361 306.958649,156.748749 
	C309.993347,160.994598 311.144287,165.823151 308.934174,170.928848 
	C306.261536,177.103073 299.839386,179.249161 295.123230,175.542038 
	C293.381958,174.173294 291.890167,172.602768 292.874329,170.110001 
	C293.239044,169.903244 293.530151,169.590881 293.804108,169.605270 
	C297.263000,169.787018 299.977203,168.966446 299.441467,164.741135 
	C299.038879,161.565811 295.068695,159.543762 291.544952,160.601379 
	C287.626038,161.777603 285.620789,164.708206 284.787720,168.552719 
	C283.855438,172.854843 285.040802,176.577118 288.463898,179.265152 
	C290.254578,180.671280 292.445038,181.868469 294.639923,182.409515 
	C306.226776,185.265701 317.300171,189.171432 326.797943,196.696640 
	C328.220978,197.824142 329.795319,197.917709 331.505249,197.239716 
	C341.688843,193.201920 352.529633,192.419327 363.224915,190.946365 
	C364.979431,190.704742 367.099945,190.264877 367.991669,192.507477 
	C368.798065,194.535507 367.698578,195.964066 366.027924,197.121246 
	C361.712250,200.110397 362.680023,204.022949 364.524323,207.793365 
	C368.623138,216.172989 372.776581,224.532715 377.196320,232.745270 
	C379.039215,236.169556 379.417786,239.044617 377.208099,242.458633 
	C373.777802,247.758530 370.782715,253.338028 367.474945,258.720215 
	C365.839111,261.381958 366.422089,263.342865 368.638672,265.091095 
	C370.475800,264.798981 370.690460,263.287201 371.267548,262.168549 
	C379.819946,245.589569 388.346283,228.997177 396.862610,212.399628 
	C397.622192,210.919266 398.372070,209.419312 398.948944,207.862656 
	C400.563232,203.506439 400.989227,199.355179 396.390320,196.364975 
	C394.931732,195.416611 394.447754,194.071182 394.944885,192.480270 
	C395.528137,190.613556 397.212250,190.612061 398.676208,190.829071 
	C406.568665,191.998932 414.447693,193.260162 422.325348,194.527512 
	C423.446472,194.707886 424.785522,194.791382 425.116150,196.217514 
	C425.535889,198.028397 423.980011,198.465179 422.841034,198.994904 
	C417.892487,201.296432 414.771515,205.316574 412.336884,209.985565 
	C405.481354,223.132751 398.695740,236.316574 391.789917,249.437180 
	C388.808685,255.101288 393.564697,258.563324 394.740692,263.267944 
	C397.795319,262.014282 398.441254,259.632690 399.460327,257.656219 
	C406.713226,243.589020 413.955597,229.515549 421.070404,215.378189 
	C429.146149,199.331375 442.204193,189.611801 459.244690,184.789902 
	C463.403809,183.612991 467.671570,182.647202 471.629028,180.970016 
	C477.767365,178.368546 480.096649,170.697388 476.767365,164.895996 
	C474.758636,161.395752 471.704956,159.544281 467.566345,160.633057 
	C465.107391,161.279953 463.534454,163.081009 463.419617,165.690018 
	C463.302612,168.348648 464.894836,169.491699 467.461609,169.729538 
	C471.021576,170.059402 470.528870,172.101944 469.072571,174.233414 
	C466.028381,178.688950 458.961639,178.325638 455.328644,173.582611 
	C450.426575,167.182770 452.733734,157.369537 460.210449,152.818649 
	C472.412872,145.391342 488.189606,154.371017 489.148376,169.289352 
	C489.819733,179.734589 484.703735,187.798111 474.819061,191.385178 
	C468.098297,193.824066 461.156616,195.673843 454.502380,198.270493 
	C448.435089,200.638123 442.929382,204.064331 439.428680,210.173965 
	C440.553436,209.459579 441.671936,208.735092 442.803864,208.032272 
	C466.394867,193.384827 490.783081,191.195084 515.920593,203.707260 
	C526.222534,208.835052 532.920715,217.088593 534.662537,228.672470 
	C535.675476,235.409088 534.133789,241.815094 528.805481,246.402374 
	C524.100891,250.452667 518.419739,251.450943 512.391174,249.300842 
	C507.928650,247.709274 505.041718,244.598526 504.288727,239.970886 
	C503.554016,235.455322 505.629700,231.996277 509.206970,229.214569 
	C515.316345,224.463852 514.695923,219.227615 507.709900,215.418015 
	C492.145721,206.930588 472.312805,212.016113 461.850220,228.415710 
	C447.330383,251.174927 446.057556,275.288757 459.201874,298.987213 
	C473.484619,324.738251 506.468506,325.956787 523.851440,302.089691 
	C525.031067,300.470123 525.609497,297.455750 528.399292,298.274811 
	C531.390076,299.152832 534.412109,300.454193 536.626892,302.792236 
	C537.898376,304.134399 536.696472,305.619171 535.960388,306.895477 
	C525.568054,324.914856 510.096619,335.324585 489.331390,337.163300 
	C476.374878,338.310577 463.733521,336.475891 451.826111,330.836029 
	C439.194244,324.853027 429.750732,315.529602 422.836060,303.042908 
M359.104065,244.728989 
	C361.434875,248.084961 365.193939,247.046036 368.569489,248.240402 
	C368.947357,243.903137 366.402374,241.696793 363.801331,239.797501 
	C362.489807,238.839859 360.602631,237.566406 358.827728,239.184265 
	C357.153198,240.710678 357.691650,242.454605 359.104065,244.728989 
z"/>
<path fill="currentColor" opacity="1.000000" stroke="none" 
	d="
M241.664032,249.845596 
	C231.105347,246.573288 225.895325,237.189102 228.161987,226.157486 
	C230.435486,215.092499 237.045059,207.181686 246.739319,202.016998 
	C269.998535,189.625504 301.971069,193.251389 317.182404,223.144897 
	C327.311920,243.051529 335.160065,263.995300 344.136871,284.427460 
	C349.895172,297.533936 355.481293,310.744720 363.563995,322.692047 
	C367.517456,328.535767 372.382202,333.483948 377.428284,338.372620 
	C380.803467,341.642517 383.125885,341.133331 386.199036,338.232361 
	C396.808685,328.217194 404.445618,316.258240 410.080383,302.892822 
	C411.017944,300.668915 411.292389,297.998505 413.531372,296.449829 
	C415.657166,296.808716 415.972260,298.684723 416.626709,300.098969 
	C420.808258,309.135223 426.433655,317.113251 433.772827,323.853149 
	C435.636902,325.565033 436.997559,327.401245 435.458069,329.926758 
	C433.638336,332.912109 435.062378,334.833923 437.239868,336.784943 
	C449.074921,347.389038 462.465271,353.374756 478.736176,351.012634 
	C479.729126,350.868469 480.732513,350.823273 481.999146,351.983368 
	C480.474426,356.491547 477.302734,360.017761 473.549225,362.977051 
	C462.845184,371.416199 450.659485,374.223999 437.365204,371.519165 
	C433.202240,370.672180 430.767029,371.116302 428.822388,375.436432 
	C425.625244,382.539215 420.336121,388.114075 413.775513,392.426971 
	C402.876831,399.591705 389.737244,403.540283 381.716095,416.499725 
	C373.374786,403.562317 360.116455,399.524200 349.124939,392.212433 
	C342.862823,388.046783 338.138245,382.435822 335.031250,375.670074 
	C333.156616,371.587952 330.874176,370.841370 326.500122,371.605560 
	C309.708038,374.539337 295.099091,370.489594 284.076202,356.687103 
	C282.968597,355.300140 281.520538,354.033936 281.526581,351.321930 
	C287.572479,351.475677 293.598206,352.030670 299.580750,350.775360 
	C309.792603,348.632690 318.698578,344.151123 326.433258,337.191986 
	C328.407776,335.415436 329.221436,333.763428 327.718872,331.151611 
	C321.560516,320.446930 316.570953,309.164520 311.796661,297.797272 
	C310.460388,294.615723 308.691437,293.185577 305.079987,293.253540 
	C293.919006,293.463654 282.750549,293.415375 271.587280,293.281189 
	C268.454681,293.243530 266.678436,294.257904 265.688995,297.324799 
	C264.105103,302.234161 261.969604,306.967285 260.423798,311.886871 
	C257.906036,319.899689 259.967773,323.388275 268.272949,325.950836 
	C269.540527,326.341980 270.930695,326.583557 272.008667,327.286224 
	C273.856873,328.490967 273.343323,330.543701 273.203064,332.323273 
	C273.034515,334.462097 271.377960,334.993347 269.618683,334.997284 
	C256.454987,335.026672 243.291168,335.014923 230.127472,334.979492 
	C227.902451,334.973511 226.197739,334.157623 226.041763,331.586517 
	C225.901550,329.275269 226.213959,327.214355 228.910919,326.481750 
	C237.252518,324.215820 241.840744,318.047546 245.121597,310.647766 
	C256.939362,283.993652 267.534515,256.839813 278.090790,229.671005 
	C279.613068,225.753098 278.853943,222.154312 276.558411,218.774475 
	C271.339813,211.090912 257.752655,209.844955 251.284134,216.454910 
	C247.402817,220.421143 247.416367,224.486771 251.321167,227.562057 
	C258.405090,233.141113 260.162018,236.852676 258.139374,241.965530 
	C255.765808,247.965332 250.236649,250.714615 241.664032,249.845596 
M413.952332,361.960266 
	C410.519745,361.381439 408.957275,364.228668 407.047668,366.046631 
	C401.090698,371.717834 394.229370,376.079926 387.401886,380.548920 
	C383.460114,383.129059 380.020996,383.267303 375.949646,380.642883 
	C368.378265,375.762329 360.754639,370.942383 354.526367,364.397247 
	C351.574402,361.295074 349.356934,361.999725 346.409698,364.027466 
	C342.977783,366.388519 344.446533,368.951324 345.834991,371.400299 
	C349.292664,377.498993 354.368286,382.011841 360.463654,385.357727 
	C366.880951,388.880249 373.527191,392.006927 379.439758,396.386047 
	C381.007996,397.547485 382.407837,397.707367 383.903351,396.358673 
	C388.809082,391.934570 394.920380,389.582001 400.653046,386.561279 
	C407.039581,383.196045 412.873047,379.135986 416.769684,372.791016 
	C420.514404,366.693451 420.435730,366.109497 413.952332,361.960266 
M298.975189,280.788361 
	C300.361481,280.548706 302.023254,281.266846 303.346924,279.162903 
	C298.391144,267.657379 293.321411,255.887238 288.251648,244.117081 
	C287.746979,244.154709 287.242279,244.192322 286.737610,244.229950 
	C282.545197,255.042816 278.316711,265.841888 274.182617,276.677002 
	C272.964233,279.870361 274.671692,280.848145 277.628876,280.822815 
	C284.450256,280.764374 291.272491,280.799377 298.975189,280.788361 
M322.732910,360.164948 
	C329.603516,358.623505 336.516815,357.181824 342.318756,352.335266 
	C340.115082,349.259338 338.872925,346.126190 335.554626,344.460846 
	C328.455841,350.315460 321.454468,356.122437 311.862366,359.041412 
	C315.716797,361.098389 318.817627,360.743225 322.732910,360.164948 
M437.839691,359.670837 
	C441.688477,360.320526 445.549744,361.618439 450.388855,359.224030 
	C441.461761,355.300079 434.203522,350.205933 427.314301,344.264404 
	C424.795624,346.847748 422.686584,349.086151 421.682831,352.300903 
	C426.155853,356.382385 431.742218,357.656891 437.839691,359.670837 
z"/>
<path fill="currentColor" opacity="1.000000" stroke="none" 
	d="
M206.164444,454.214417 
	C205.985611,458.185699 208.059647,460.558777 210.663071,462.501282 
	C227.741608,475.244019 219.298508,496.531372 203.866638,501.791351 
	C187.508621,507.366974 171.374710,507.717438 156.904434,496.491669 
	C143.382568,486.001709 144.713379,463.290649 151.165970,453.861267 
	C154.925461,448.367371 161.602509,449.472626 167.307144,448.878296 
	C168.359116,451.757019 167.006424,453.633392 166.250320,455.588135 
	C163.985306,461.443756 162.923599,467.394135 164.113525,473.678650 
	C165.484238,480.918152 169.488754,485.865143 176.619080,487.769196 
	C183.160629,489.516052 189.814163,489.751160 196.154541,486.798981 
	C202.244553,483.963409 203.063858,479.328003 198.490585,474.441071 
	C197.809662,473.713470 197.086105,472.998718 196.281174,472.418152 
	C182.130051,462.211609 185.160934,440.140930 204.074463,433.871948 
	C214.925552,430.275330 225.716705,431.196808 236.507599,434.231964 
	C239.341522,435.029053 239.962875,437.026886 239.976303,439.545776 
	C240.005615,445.045044 240.486786,450.585785 239.980881,456.035065 
	C238.896378,467.716736 249.860916,471.727692 259.603302,468.283081 
	C254.017715,453.131165 255.735977,443.314453 265.163940,436.514496 
	C275.157013,429.307007 290.392853,429.411285 299.817139,436.751709 
	C308.494232,443.510132 309.847046,453.815216 303.766479,469.182220 
	C309.827393,469.913696 315.721130,470.422180 321.330994,468.038940 
	C325.046173,466.460663 325.594421,462.707825 325.662415,459.127899 
	C325.773132,453.297363 325.831604,447.457703 325.624207,441.632141 
	C325.487762,437.799988 326.538177,435.594757 330.814117,435.568817 
	C333.115814,435.554901 335.489532,435.131989 337.697357,434.457092 
	C342.506134,432.987091 343.541992,435.218628 343.423431,439.458252 
	C343.241852,445.952606 343.335449,452.455963 343.383453,458.954987 
	C343.425690,464.671143 345.346710,467.234253 350.789154,468.613495 
	C353.028229,469.180939 355.367828,469.555603 357.672791,469.619720 
	C363.965637,469.794708 365.813965,468.056274 365.989929,461.836700 
	C366.126526,457.007996 366.020874,452.172699 366.044647,447.340454 
	C366.058990,444.423615 367.223572,443.002686 370.449646,442.574036 
	C387.169067,440.352600 383.658630,441.445435 384.087860,454.435059 
	C384.186859,457.431793 384.031036,460.439209 384.191956,463.430969 
	C384.405243,467.396729 386.664612,469.552948 390.605927,469.610596 
	C394.492767,469.667511 396.510834,467.205627 396.663788,463.663818 
	C396.958344,456.842773 396.953888,450.002625 396.857147,443.173431 
	C396.806000,439.561249 397.847687,437.913818 401.869324,437.517181 
	C414.368561,436.284515 414.339752,436.084106 414.256226,448.642212 
	C414.229614,452.641418 414.149658,456.645325 414.299713,460.639374 
	C414.512268,466.295685 417.382874,469.419128 422.298004,469.636993 
	C426.717804,469.832916 429.066437,467.589996 429.402802,461.346191 
	C429.832458,453.370300 429.810364,445.347900 429.507141,437.363617 
	C429.344482,433.079468 430.958679,431.222412 435.022156,430.926300 
	C447.303802,430.031281 447.389832,426.092926 447.233154,441.249603 
	C447.160828,448.248352 447.363434,455.253754 447.135529,462.246124 
	C446.846039,471.128296 444.657562,479.557343 435.846405,483.548492 
	C426.889404,487.605743 417.976135,486.625885 410.176361,479.967834 
	C409.690735,479.553314 409.083313,479.281525 408.229706,478.757355 
	C403.027374,484.642456 396.471924,486.640320 388.861847,485.348846 
	C388.205841,485.237518 387.346985,485.400848 386.913177,485.039459 
	C380.640106,479.813934 374.773834,482.964630 368.035065,484.628418 
	C358.192627,487.058533 347.748688,486.888458 339.072723,479.693634 
	C337.442932,478.342041 336.222015,478.671417 334.698151,479.891998 
	C329.520935,484.038605 323.455933,485.516144 316.940094,485.364288 
	C306.166046,485.113251 295.254120,486.543304 284.768188,482.624847 
	C283.628632,482.198975 282.070160,482.347198 280.864838,482.729736 
	C269.814850,486.236359 258.435577,485.679443 247.144150,485.232452 
	C231.994949,484.632782 222.777328,473.840546 222.020157,456.598541 
	C222.005524,456.265747 222.077881,455.913177 221.992691,455.601837 
	C221.129837,452.448853 224.496368,447.620819 219.069870,446.355072 
	C214.408035,445.267700 206.861481,447.832672 206.164444,454.214417 
M274.218445,457.054443 
	C274.474213,459.073151 275.113678,460.977753 276.421906,462.530701 
	C278.239563,464.688385 280.206940,467.365051 283.383575,466.363159 
	C288.144287,464.861725 289.605133,460.757721 289.817596,456.155487 
	C290.027039,451.618500 289.597290,447.250671 284.268127,445.783752 
	C280.234070,444.673279 277.131927,446.239197 275.133636,449.925690 
	C274.056946,451.912018 274.039612,454.067230 274.218445,457.054443 
z"/>
<path fill="currentColor" opacity="1.000000" stroke="none" 
	d="
M301.731812,597.304810 
	C292.326996,597.615540 283.506592,597.490173 276.428375,590.739197 
	C274.990936,589.368103 273.794373,590.125122 272.510620,591.176636 
	C266.955688,595.726868 260.358582,597.234863 253.388611,597.285278 
	C240.723892,597.376831 228.058029,597.297119 215.392731,597.326111 
	C211.010559,597.336182 206.742920,596.545044 202.627869,595.210327 
	C187.942749,590.447571 180.987137,571.643188 189.309219,558.712036 
	C193.141403,552.757507 199.637650,553.103699 205.492966,552.755798 
	C206.932281,554.671692 206.023254,556.028503 205.608429,557.424683 
	C204.897644,559.817017 204.018799,562.184265 203.580765,564.628357 
	C201.857971,574.241089 206.557709,580.417908 216.259399,580.669067 
	C228.582977,580.988159 240.921310,580.966248 253.249390,580.800842 
	C261.355988,580.692139 264.648743,576.597168 264.493073,568.294495 
	C264.227783,554.143738 264.249115,539.987671 264.001434,525.836487 
	C263.924438,521.437256 264.938538,518.983765 270.049469,518.118713 
	C284.868500,515.610718 282.511627,514.924438 282.441315,528.435730 
	C282.370239,542.100464 282.262054,555.766174 282.354584,569.430176 
	C282.408691,577.426208 285.649475,580.568481 293.624054,580.900574 
	C295.453339,580.976746 297.293518,580.983948 299.120758,580.881348 
	C305.409363,580.528198 308.497528,577.504883 308.664276,571.091980 
	C308.837524,564.431152 308.774902,557.759155 308.616547,551.096741 
	C308.534058,547.623047 309.832306,546.132629 313.386139,545.553589 
	C326.302338,543.449341 326.282104,543.320557 326.258575,556.482544 
	C326.250519,560.982056 326.177368,565.482422 326.241882,569.980835 
	C326.324463,575.737427 328.511200,578.862305 333.852997,580.257080 
	C338.238403,581.402222 342.814362,581.394165 347.255249,580.679382 
	C351.550568,579.988037 352.482208,576.338074 352.644989,572.729431 
	C352.870056,567.740234 352.704895,562.733398 352.705933,557.734131 
	C352.706329,555.857605 352.676788,553.707397 355.002380,553.341187 
	C359.260559,552.670715 363.568726,552.170654 367.872345,551.991211 
	C370.396973,551.886047 370.418976,554.084106 370.408478,556.003174 
	C370.378357,561.502319 370.258514,567.004822 370.402893,572.500061 
	C370.558685,578.428955 372.707581,580.910583 377.319000,580.981689 
	C381.906067,581.052429 384.572479,578.043579 384.593536,572.176880 
	C384.615631,566.018433 384.350616,559.855530 384.072998,553.700806 
	C383.902313,549.916809 385.789886,548.233032 389.314270,547.925598 
	C392.463043,547.650940 395.611023,547.364258 398.762482,547.123962 
	C401.916901,546.883423 402.215057,549.023743 402.214050,551.369080 
	C402.211243,557.868347 402.209595,564.367615 402.189667,570.866882 
	C402.181854,573.412292 402.367126,575.969727 404.165314,577.915283 
	C406.749908,580.711670 410.082947,581.676941 413.741058,580.655518 
	C417.269379,579.670349 418.017700,576.664307 417.973938,573.520935 
	C417.851105,564.696960 419.279236,555.890381 418.279785,547.063843 
	C417.923401,543.916565 418.788116,542.137878 422.320618,541.578003 
	C438.880249,538.953369 436.037018,538.134644 436.095032,552.732849 
	C436.130066,561.543457 437.122833,570.438965 435.503082,579.168396 
	C432.187714,597.036072 414.104156,603.647888 399.616669,592.470337 
	C398.712830,591.772949 398.022400,590.723083 396.053650,590.633118 
	C391.285339,596.676086 384.325836,598.106262 376.661621,597.285156 
	C375.023590,597.109619 372.969421,597.112549 371.879639,596.154419 
	C366.613312,591.524292 362.090759,593.936646 356.210480,595.641724 
	C343.688782,599.272583 330.777679,599.245789 319.711121,589.526917 
	C314.814972,594.565247 308.839294,596.731445 301.731812,597.304810 
z"/>
<path fill="currentColor" opacity="1.000000" stroke="none" 
	d="
M587.369385,576.337585 
	C585.862915,588.996582 577.246094,596.654724 562.993591,597.140015 
	C548.347900,597.638733 533.670166,597.428833 519.011597,597.199768 
	C513.598938,597.115112 508.619629,594.994263 504.308197,591.592041 
	C502.850006,590.441345 501.662292,589.198914 499.589905,590.885498 
	C490.513336,598.272339 479.669861,598.784302 468.751648,598.063049 
	C462.308502,597.637329 455.837067,597.096191 449.465210,595.601501 
	C445.757599,594.731750 444.687134,593.011475 444.744873,589.397705 
	C444.927338,577.979370 444.802155,578.022156 456.149902,580.282532 
	C459.041138,580.858398 462.008331,581.052856 465.291443,581.466736 
	C465.594818,576.925354 464.113403,573.176575 463.143402,569.447266 
	C460.713287,560.104492 457.994812,550.830322 455.129303,541.610291 
	C454.026581,538.062195 454.790802,536.219299 458.501221,535.618469 
	C459.972137,535.380371 461.405823,534.885742 462.840424,534.454651 
	C471.038605,531.990906 471.019928,531.990845 473.536469,539.891052 
	C477.228973,551.483093 479.807678,563.359802 482.682678,575.163086 
	C483.070068,576.753601 482.608429,579.261292 485.159973,579.521423 
	C487.784271,579.789001 489.462341,578.065979 490.763092,576.007019 
	C491.995087,574.056824 491.779816,571.839233 491.780914,569.685181 
	C491.788483,554.689209 491.925140,539.690735 491.668884,524.698975 
	C491.597687,520.531494 492.976044,518.630249 497.002991,517.994446 
	C511.318756,515.734314 510.022919,513.683105 510.092102,528.384949 
	C510.155579,541.880920 510.045807,555.377747 510.086456,568.873901 
	C510.111420,577.160706 513.259094,580.634216 521.372314,580.761902 
	C533.865295,580.958557 546.363586,580.883057 558.859131,580.815918 
	C563.357300,580.791748 567.756042,580.199280 568.795776,574.610840 
	C569.782166,569.309814 567.189026,565.299622 561.185242,563.446838 
	C553.441467,561.057007 545.449341,560.944641 537.433838,561.703796 
	C535.776489,561.860718 534.119324,562.035461 532.470398,562.262512 
	C528.914001,562.752014 527.629883,561.008423 526.785828,557.671326 
	C525.065674,550.870667 527.203491,545.841736 532.143127,541.166260 
	C541.947754,531.885742 552.188538,523.114868 562.358459,514.253540 
	C565.136597,511.832947 566.968445,512.163757 569.322449,514.982239 
	C577.487000,524.757812 577.504272,524.587830 567.493286,532.453003 
	C562.015869,536.756348 556.114197,540.558411 550.610535,546.104309 
	C555.192749,546.687866 559.195068,547.058105 563.147217,547.725159 
	C579.611450,550.504272 588.699585,561.118958 587.369385,576.337585 
z"/>
<path fill="currentColor" opacity="1.000000" stroke="none" 
	d="
M321.303223,175.642822 
	C315.589233,156.968033 307.051392,139.846054 298.959290,121.551323 
	C304.844513,122.214592 308.680145,124.852211 312.157043,127.734131 
	C314.869904,129.982788 317.339203,131.586182 321.017517,130.755112 
	C322.215912,130.484344 323.674042,130.902939 324.903748,131.325363 
	C327.602264,132.252289 328.797913,133.757980 326.608215,136.481155 
	C324.403473,139.223068 323.771240,142.483932 324.212402,145.918320 
	C324.786469,150.387177 326.894226,153.965576 331.358337,155.271103 
	C335.130554,156.374283 338.288422,154.547012 340.427734,151.490280 
	C343.072418,147.711426 343.781860,143.576248 341.513611,139.244690 
	C340.389771,137.098572 337.018768,136.168808 337.662964,133.194382 
	C338.567444,129.018097 339.659149,124.828079 342.475555,120.832458 
	C346.594940,123.238441 349.402252,126.708977 352.286865,130.054794 
	C353.343781,131.280746 352.369232,132.580383 351.884338,133.792770 
	C350.160492,138.102783 351.158386,141.960556 353.864471,145.510071 
	C357.779999,150.646042 364.129059,152.150848 368.301392,148.961380 
	C372.509247,145.744751 373.060303,138.405670 369.308289,133.589890 
	C368.309937,132.308472 366.955505,131.226532 365.584686,130.327271 
	C360.701416,127.123787 359.897919,124.443390 364.755035,121.132790 
	C370.237152,117.396164 371.916290,111.899864 374.674225,106.713028 
	C376.425262,103.419823 377.438812,98.050507 381.077515,97.890488 
	C385.122040,97.712631 385.837097,103.267738 387.393066,106.547081 
	C390.021393,112.086426 392.380890,117.280785 398.015625,120.917854 
	C402.868561,124.050270 402.105225,126.699799 397.318207,129.900406 
	C395.555420,131.079041 393.915955,132.652100 392.687561,134.377884 
	C389.828918,138.394226 390.533234,145.192078 393.853302,148.239655 
	C397.294678,151.398605 402.692535,151.063721 407.015839,147.423065 
	C411.886475,143.321487 412.919861,139.280365 410.451172,133.020020 
	C409.875000,131.558853 409.959625,130.487457 410.946716,129.384720 
	C412.946411,127.150688 414.927673,124.899857 416.948120,122.684761 
	C419.111328,120.313072 420.905762,120.403946 422.048706,123.604538 
	C422.944916,126.114082 423.706757,128.671494 424.596649,131.183411 
	C425.397430,133.443909 425.072327,135.140884 423.204498,136.966919 
	C419.329041,140.755600 419.119965,147.159897 422.330780,151.508469 
	C426.528748,157.193954 433.683136,156.886047 437.134430,150.742477 
	C439.842804,145.921356 439.498627,141.104294 436.161041,136.678391 
	C433.962738,133.763290 435.184296,131.007156 437.978333,131.288101 
	C446.197479,132.114609 451.371857,126.702957 457.541046,123.202797 
	C458.919983,122.420425 460.425323,121.415749 462.275604,122.296883 
	C463.458893,124.075966 462.049896,125.438911 461.390656,126.835045 
	C453.770874,142.972107 447.114319,159.501862 441.381897,176.392975 
	C440.183685,179.923630 438.491058,180.521545 435.041779,179.586029 
	C418.590912,175.124191 401.756348,172.818268 384.760559,172.439209 
	C365.541168,172.010574 346.582550,174.685577 327.985657,179.533508 
	C324.212616,180.517075 322.225372,179.798477 321.303223,175.642822 
z"/>
<path fill="currentColor" opacity="1.000000" stroke="none" 
	d="
M507.216461,466.484772 
	C507.392517,469.103729 508.818481,469.628174 510.691315,469.609253 
	C512.689026,469.589050 514.698059,469.733398 516.682861,469.570740 
	C524.900818,468.897278 527.017761,466.518036 527.020691,458.176788 
	C527.022705,452.515106 527.115295,446.852142 527.020813,441.192200 
	C526.962036,437.670929 528.623901,436.034241 532.016602,435.700409 
	C534.826111,435.423889 537.661072,435.140533 540.402832,434.506134 
	C544.018921,433.669464 545.297363,435.044403 545.248047,438.552612 
	C545.156799,445.045715 545.198730,451.541382 545.247375,458.035553 
	C545.305237,465.752838 549.489136,469.662659 557.582764,469.650574 
	C563.928040,469.641113 566.728271,466.218628 566.762329,458.147491 
	C566.822754,443.826508 566.937378,429.502991 566.715759,415.185394 
	C566.653015,411.136475 568.300049,409.609039 571.954468,408.898651 
	C583.955139,406.565704 583.956238,406.495300 584.428040,418.857758 
	C585.024780,434.494873 585.597412,450.145721 584.186035,465.758331 
	C583.084595,477.942261 575.247925,484.927246 563.070251,485.395111 
	C554.939514,485.707520 547.033813,485.469055 540.506714,479.622833 
	C539.429199,478.657745 538.196899,478.199005 536.946472,479.358795 
	C529.893066,485.901184 521.140564,485.754089 512.452576,485.318329 
	C508.137085,485.101868 506.053284,486.386017 504.564240,490.709534 
	C500.107849,503.648743 484.015045,512.567322 470.442474,510.297119 
	C468.788330,510.020416 467.563782,509.300446 466.937744,507.860107 
	C465.299133,504.090057 463.349670,500.415100 462.587189,495.772034 
	C467.389496,494.179474 472.316101,495.518372 476.906738,494.463043 
	C481.551941,493.395172 485.613373,491.351196 487.185822,485.839722 
	C483.679871,485.313568 480.432007,484.934601 477.227692,484.326233 
	C464.294464,481.870544 455.529266,470.843658 456.125641,457.879913 
	C456.771332,443.844055 466.379486,433.105377 479.631165,431.735199 
	C487.221771,430.950378 494.531372,432.004913 501.560822,435.157501 
	C505.320038,436.843445 507.274109,439.224854 507.156067,443.567322 
	C506.952515,451.054230 507.156708,458.552216 507.216461,466.484772 
M477.708435,466.823547 
	C479.574036,468.384430 481.889587,468.826569 484.151733,469.366547 
	C487.194977,470.092957 488.982330,469.241638 488.924988,465.714172 
	C488.843781,460.718414 488.883575,455.718414 488.989655,450.722748 
	C489.057922,447.507751 487.535400,446.310608 484.434906,446.251343 
	C479.350403,446.154144 475.753906,448.554626 474.612610,453.647614 
	C473.602997,458.152802 473.751984,462.616760 477.708435,466.823547 
z"/>
<path fill="currentColor" opacity="1.000000" stroke="none" 
	d="
M370.684204,660.980652 
	C375.504852,657.145020 373.378723,652.121704 373.626312,647.675598 
	C373.793762,644.668030 374.266785,642.585449 377.655334,641.915283 
	C383.281830,640.802490 384.993683,642.107483 384.916412,647.937317 
	C384.896576,649.433716 384.760681,650.930542 384.632507,652.423218 
	C383.943481,660.446411 389.146332,664.277710 396.924225,661.475586 
	C399.204651,660.653992 399.706055,658.839478 399.707092,656.694397 
	C399.708801,653.196289 399.739868,649.698181 399.757355,646.200073 
	C399.779785,641.711304 403.194427,642.039368 406.129303,641.748352 
	C409.419556,641.422058 410.582916,643.096619 410.460083,646.229431 
	C410.290405,650.555481 410.481018,654.899048 410.221100,659.217346 
	C409.797394,666.256531 406.810547,669.329468 399.892639,670.481995 
	C393.837402,671.490784 387.961884,671.106628 382.322693,668.537964 
	C381.237000,668.043335 380.196198,667.539490 379.009186,668.178589 
	C372.836670,671.502014 366.060425,670.814636 359.457764,670.957581 
	C351.634674,671.126892 343.541504,672.135071 336.053040,670.519531 
	C329.227295,669.046936 323.191467,669.404053 316.529602,670.607117 
	C309.560211,671.865662 302.265625,671.608459 295.144958,670.349304 
	C285.967072,668.726257 280.926697,661.154236 282.895477,651.998352 
	C283.609161,648.679443 285.573334,646.803833 288.848236,646.073608 
	C293.175385,645.108826 294.319122,646.117615 293.582184,650.416260 
	C292.197723,658.491699 294.793427,661.607483 303.003815,661.688538 
	C306.168701,661.719788 309.334320,661.728149 312.499146,661.698730 
	C318.974213,661.638611 319.789185,660.854248 319.831451,654.556030 
	C319.876160,647.892883 319.809113,641.228516 319.907074,634.566406 
	C319.975311,629.926880 324.174377,626.773010 328.636261,627.841797 
	C331.327698,628.486511 331.082214,630.709961 331.098053,632.646606 
	C331.156647,639.809265 331.067200,646.973022 331.121460,654.135681 
	C331.166992,660.152161 332.569855,661.735107 338.402374,661.649841 
	C349.042145,661.494446 359.698547,662.345154 370.684204,660.980652 
z"/>
<path fill="currentColor" opacity="1.000000" stroke="none" 
	d="
M473.880249,669.296021 
	C465.691620,671.788025 457.644867,670.973572 449.686371,671.019958 
	C445.976715,671.041565 443.590393,671.881165 441.852814,675.560181 
	C438.958496,681.688293 430.813904,685.411072 424.189514,684.244568 
	C419.675842,683.449707 419.653015,679.712524 418.908752,676.285034 
	C422.741852,673.699097 428.232056,676.447754 431.240936,672.268250 
	C430.269135,669.919312 428.324615,670.507690 426.811493,670.152527 
	C419.225464,668.372131 414.454742,662.371826 414.902954,655.115173 
	C415.387238,647.274231 420.518341,641.638611 428.279510,640.691895 
	C430.565979,640.412964 432.946625,640.454529 435.236267,640.736877 
	C442.370148,641.616638 444.079376,643.617004 444.172028,650.719055 
	C444.315063,661.681396 444.315704,661.761169 455.439545,661.667480 
	C468.785400,661.555054 470.219757,664.258728 469.602417,647.757629 
	C469.421936,642.932312 471.745056,641.779541 475.905396,641.660950 
	C480.510345,641.529785 480.427155,644.447815 480.362793,647.625610 
	C480.281799,651.622864 480.341217,655.623169 480.242065,659.619690 
	C480.134674,663.951599 478.469940,667.371765 473.880249,669.296021 
M430.069702,661.266235 
	C436.240356,661.403931 432.996674,656.687988 433.556671,654.120544 
	C433.981934,652.171143 434.125519,649.490540 430.855835,649.368408 
	C427.796906,649.254211 426.363586,651.116516 426.088593,653.947083 
	C425.801361,656.902893 426.201508,659.613892 430.069702,661.266235 
z"/>
<path fill="currentColor" opacity="1.000000" stroke="none" 
	d="
M595.960083,458.000000 
	C595.974426,443.694824 596.114319,429.888031 595.936401,416.085358 
	C595.875305,411.340881 597.694336,409.327515 602.395630,408.631439 
	C615.590210,406.677979 614.071228,406.176910 614.118164,418.954010 
	C614.186646,437.582397 614.160522,456.211456 614.086243,474.839844 
	C614.053833,482.949463 613.953857,482.948181 606.223633,484.563904 
	C605.899231,484.631744 605.588989,484.767090 605.264832,484.836884 
	C596.112183,486.807465 596.070679,486.789337 596.001831,477.461273 
	C595.955200,471.141113 595.972351,464.820435 595.960083,458.000000 
z"/>
<path fill="currentColor" opacity="1.000000" stroke="none" 
	d="
M424.363708,189.659851 
	C402.297943,185.017365 380.441925,184.091553 358.465057,186.390518 
	C349.378296,187.341095 340.335175,188.852982 331.577606,191.520050 
	C327.617218,192.726166 326.152069,191.134369 325.116516,187.715469 
	C323.986481,183.984573 326.536163,183.461945 328.992859,182.828812 
	C363.493439,173.937531 398.013733,173.736542 432.522217,182.748169 
	C435.227386,183.454605 438.962128,183.568604 437.442871,188.318085 
	C436.545746,191.122559 435.279510,192.683105 432.023804,191.578537 
	C429.670715,190.780182 427.188873,190.361145 424.363708,189.659851 
z"/>
<path fill="currentColor" opacity="1.000000" stroke="none" 
	d="
M242.911453,562.302490 
	C236.116318,562.299133 229.806625,562.339233 223.498215,562.267883 
	C221.612625,562.246582 219.063370,562.900208 218.540436,560.217285 
	C218.068359,557.795288 218.046173,554.703247 220.356049,553.400574 
	C223.196198,551.798828 223.675125,549.899841 223.565201,546.972168 
	C223.376663,541.950806 225.472382,537.911438 230.094925,535.550110 
	C235.543304,532.766907 241.307053,531.952271 246.817368,534.876526 
	C250.895309,537.040649 247.568893,540.498108 247.205917,543.296692 
	C246.822388,546.253418 244.618774,545.641235 242.598251,544.911621 
	C240.681763,544.219666 238.696396,543.716919 236.998764,545.336609 
	C235.925980,546.360168 235.850922,547.773804 236.485001,549.034180 
	C237.622833,551.295837 239.785553,551.580505 242.023254,551.561462 
	C242.852554,551.554382 243.681854,551.506104 244.510483,551.463684 
	C246.605988,551.356628 249.153778,550.364319 250.407837,552.699036 
	C251.691284,555.088318 251.558228,558.024841 250.506348,560.445190 
	C249.096664,563.688843 245.832413,561.836853 242.911453,562.302490 
z"/>
<path fill="currentColor" opacity="1.000000" stroke="none" 
	d="
M547.259644,491.288910 
	C552.583801,494.322327 554.522644,498.196106 553.111633,502.820374 
	C551.769653,507.218201 548.421509,509.136261 544.062622,509.090332 
	C539.403992,509.041260 535.793762,505.705597 535.115540,501.292023 
	C534.139099,494.938385 539.459229,490.353668 547.259644,491.288910 
z"/>
<path fill="currentColor" opacity="1.000000" stroke="none" 
	d="
M350.297791,506.336304 
	C346.269318,509.657135 342.173065,510.300476 338.153809,507.449524 
	C334.994354,505.208496 333.370575,501.958221 334.404633,497.918915 
	C335.411224,493.986847 338.040192,491.594666 341.991516,490.976776 
	C345.498352,490.428314 348.671692,491.543427 350.726135,494.517395 
	C353.337402,498.297363 353.421234,502.243774 350.297791,506.336304 
z"/>
<path fill="currentColor" opacity="1.000000" stroke="none" 
	d="
M527.372437,508.794556 
	C522.359375,509.595337 518.741394,508.174194 516.767578,503.729584 
	C515.011902,499.776062 515.819153,496.059631 518.902954,493.221954 
	C522.003723,490.368561 525.778442,489.974213 529.564209,492.045227 
	C532.986023,493.917145 534.336426,496.927917 534.152588,500.787048 
	C533.950073,505.036804 531.709717,507.522369 527.372437,508.794556 
z"/>
<path fill="currentColor" opacity="1.000000" stroke="none" 
	d="
M336.043823,613.645996 
	C333.757141,619.281067 329.785706,621.950867 325.318787,620.893677 
	C321.049469,619.883179 318.240356,617.272400 317.853851,612.665588 
	C317.405121,607.316956 320.858856,603.282166 326.211273,602.781860 
	C331.893524,602.250732 335.683411,606.261719 336.043823,613.645996 
z"/>
<path fill="currentColor" opacity="1.000000" stroke="none" 
	d="
M332.019714,504.645752 
	C328.744507,508.687500 325.062073,510.299286 320.390350,508.221588 
	C316.654938,506.560303 314.717834,503.532257 315.000092,499.528107 
	C315.292664,495.378174 317.564209,492.368896 321.685516,491.161652 
	C324.932098,490.210602 328.025574,490.750000 330.389740,493.284912 
	C333.378815,496.489868 334.051178,500.228668 332.019714,504.645752 
z"/>
<path fill="currentColor" opacity="1.000000" stroke="none" 
	d="
M302.709015,619.507751 
	C297.635223,615.014526 296.870636,611.113403 299.894958,606.653259 
	C302.373932,602.997437 307.383759,601.663940 311.450958,603.577209 
	C315.258698,605.368469 317.186005,610.099548 315.974121,614.680786 
	C314.577240,619.961182 309.576569,621.902527 302.709015,619.507751 
z"/>
<path fill="currentColor" opacity="1.000000" stroke="none" 
	d="
M289.918396,421.558228 
	C285.555054,426.222229 281.598877,427.156830 277.387238,424.589020 
	C273.764069,422.380005 272.137604,419.109192 273.117920,414.854340 
	C274.325195,409.614563 279.392273,406.698944 284.611298,408.137878 
	C290.417816,409.738800 292.392242,414.425659 289.918396,421.558228 
z"/>
<path fill="currentColor" opacity="1.000000" stroke="none" 
	d="
M186.516510,518.962891 
	C186.659546,513.992798 189.056702,511.021118 193.400345,509.934418 
	C197.067490,509.016968 200.421356,509.999847 202.625122,513.295105 
	C204.919083,516.725220 205.579727,520.371033 203.002319,524.003418 
	C200.739655,527.192200 197.520981,528.221741 193.794891,527.538940 
	C189.297287,526.714600 186.798935,523.971863 186.516510,518.962891 
z"/>
<path fill="currentColor" opacity="1.000000" stroke="none" 
	d="
M185.083725,521.451172 
	C181.920624,526.897095 178.467636,528.581421 173.556656,527.255554 
	C169.547684,526.173157 167.385040,523.212097 167.201233,519.303833 
	C166.995316,514.925537 169.312515,511.712067 173.510696,510.204895 
	C180.090622,507.842651 185.373215,512.801208 185.083725,521.451172 
z"/>
<path fill="currentColor" opacity="1.000000" stroke="none" 
	d="
M314.753479,638.173462 
	C314.075134,640.679749 313.944763,640.786316 308.771088,643.522156 
	C309.676758,645.470642 311.621857,644.860657 313.122894,645.259033 
	C314.779938,645.698669 315.817719,646.561096 315.706818,648.368652 
	C315.610992,649.929993 314.609192,650.908447 313.158264,650.955383 
	C309.344818,651.078613 305.523224,651.059448 301.708221,650.963562 
	C300.496033,650.933105 299.549286,650.187622 299.168396,648.910339 
	C298.638855,647.134644 301.939453,638.357666 303.779846,637.405396 
	C307.414307,635.524780 311.162384,634.108276 314.753479,638.173462 
z"/>
<path fill="currentColor" opacity="1.000000" stroke="none" 
	d="
M388.241150,674.820740 
	C390.300873,677.546631 390.634888,680.070435 388.277557,682.263611 
	C386.081940,684.306274 383.415253,684.598755 381.009369,682.686035 
	C379.300171,681.327209 378.134827,681.861755 376.599884,682.862244 
	C373.813171,684.678833 371.120331,684.131836 369.017426,681.690674 
	C367.286926,679.681885 367.362732,677.366699 369.048553,675.299011 
	C371.198273,672.662231 373.904358,672.404114 376.566437,674.294739 
	C378.419373,675.610657 379.786865,675.293030 381.497498,674.155884 
	C383.660126,672.718262 385.907349,672.927734 388.241150,674.820740 
z"/>
<path fill="currentColor" opacity="1.000000" stroke="none" 
	d="
M394.380554,636.322510 
	C393.712006,629.993713 397.124268,627.274109 402.170593,629.924561 
	C404.065033,630.919617 405.266785,631.078430 407.049927,629.924500 
	C409.747681,628.178894 412.458801,628.431763 414.603394,631.018799 
	C416.150940,632.885681 416.365875,634.987000 414.777435,636.937866 
	C412.516663,639.714661 409.685333,639.984924 406.834229,638.037720 
	C405.178894,636.907104 404.023956,637.042847 402.405914,638.098816 
	C399.484161,640.005676 396.744232,639.572876 394.380554,636.322510 
z"/>
<path fill="currentColor" opacity="1.000000" stroke="none" 
	d="
M468.797668,674.780029 
	C472.156586,672.310425 475.054443,672.517700 477.345551,675.575867 
	C479.047089,677.847046 478.910858,680.400452 476.796967,682.356506 
	C474.614624,684.375854 471.929718,684.643738 469.471100,682.859070 
	C466.489410,680.694641 466.385498,677.957214 468.797668,674.780029 
z"/>
</svg>