<svg version="1.1" id="Layer_1" xmlns="http://www.w3.org/2000/svg" xmlns:xlink="http://www.w3.org/1999/xlink" x="0px" y="0px"
	 width="100%" viewBox="0 0 1300 1282" enable-background="new 0 0 1300 1282" xml:space="preserve">
<path fill="none" opacity="1.000000" stroke="currentColor" stroke-linecap="round" stroke-linejoin="round" stroke-width="7.000000"
	d="
M1226.000000,801.500000 
	C1223.941528,798.029724 1220.135742,796.906494 1216.954102,795.080017 
	C1211.791260,792.116211 1206.313232,789.705933 1201.007935,786.984558 
	C1198.042725,785.463623 1195.689453,785.328979 1193.442871,788.458984 
	C1189.396851,794.095581 1185.776733,800.006165 1181.586304,805.565125 
	C1167.864502,823.768066 1150.998779,837.934631 1130.540161,848.080933 
	C1115.897095,855.343018 1100.711060,860.552368 1084.495850,862.464294 
	C1055.977661,865.826904 1028.530884,862.702698 1002.447510,849.604492 
	C984.625305,840.654663 968.851074,829.117371 955.591248,814.417664 
	C939.075562,796.108704 926.700256,775.263367 917.815491,752.070679 
	C907.891235,726.164490 903.453491,699.590454 903.414978,672.000122 
	C903.393127,656.374573 904.094482,640.871094 906.994568,625.498962 
	C909.262390,613.478210 912.198669,601.627747 916.007812,590.002563 
	C921.756653,572.457581 929.294861,555.757324 938.960266,539.975647 
	C957.686890,509.398682 981.748047,484.898315 1015.481018,470.954071 
	C1027.734863,465.888702 1040.190674,462.172363 1053.480591,460.810272 
	C1060.353760,460.105804 1067.206055,459.664825 1073.992432,460.114014 
	C1096.996582,461.636566 1118.849121,466.834045 1136.451782,483.052307 
	C1142.828369,488.927429 1147.352173,496.249756 1148.420776,505.009674 
	C1149.907593,517.198608 1144.747681,525.596008 1133.577759,531.156250 
	C1125.104248,535.374268 1117.430176,540.785767 1114.379028,550.963745 
	C1110.450562,564.068726 1112.241821,576.022644 1120.047852,586.965820 
	C1132.550537,604.493164 1155.137573,608.300354 1174.500366,602.501038 
	C1195.779663,596.127686 1207.960815,580.899780 1213.854248,560.457947 
	C1218.654175,543.808044 1217.279297,526.900635 1211.935303,510.521118 
	C1203.273315,483.972198 1186.729858,463.395538 1163.518433,447.972198 
	C1144.316895,435.213287 1123.102173,427.204224 1100.970581,421.616669 
	C1085.759399,417.776245 1070.297729,415.139984 1054.511230,414.290375 
	C1047.841064,413.931396 1041.175049,413.648468 1034.499878,413.506958 
	C1022.094604,413.244080 1009.772766,414.218475 997.498474,415.989624 
	C978.038086,418.797668 959.092285,423.569000 940.478882,429.938232 
	C912.077820,439.656616 886.970703,454.941925 864.020203,474.024261 
	C862.034912,475.674866 860.415894,477.759888 858.478394,479.475647 
	C856.222229,481.473633 853.718262,483.094177 850.500000,483.000000 
"/>
<path fill="none" opacity="1.000000" stroke="currentColor" stroke-linecap="round" stroke-linejoin="round" stroke-width="7.000000"
	d="
M773.500000,787.500000 
	C768.888733,789.727173 767.947266,794.639893 766.131775,798.561035 
	C750.744873,831.794006 735.627563,865.084045 714.123230,895.088318 
	C699.434937,915.582520 681.404541,932.416687 661.464783,947.453247 
	C657.972595,950.086670 654.065308,950.721619 649.981995,948.027283 
	C635.447449,938.437256 622.569885,927.148743 610.800964,914.180664 
	C598.249939,900.350830 587.743286,885.200012 578.122620,869.425232 
	C565.462097,848.666138 554.493591,826.933289 544.050659,804.975891 
	C533.322205,782.417908 522.858765,759.730774 512.536926,736.983276 
	C500.545044,710.555176 488.781403,684.023010 477.015533,657.493103 
	C466.608032,634.026001 456.491821,610.428650 445.952667,587.021301 
	C436.586090,566.218262 427.657715,545.215820 417.064911,524.966064 
	C406.539734,504.845490 395.413239,485.223938 381.092285,467.425751 
	C361.168671,442.664490 335.497162,426.979462 305.453674,418.157776 
	C295.617371,415.269562 285.343750,413.912292 275.026825,412.759857 
	C259.617126,411.038544 244.322891,411.378967 229.006531,412.583160 
	C215.853104,413.617310 202.777710,415.386780 189.990082,418.964569 
	C165.181046,425.905762 142.409164,436.795410 123.586334,454.591309 
	C107.498169,469.801819 95.529167,487.996307 89.586060,509.523773 
	C83.185898,532.706909 82.776367,555.666321 96.066895,576.958252 
	C105.090553,591.414551 117.558685,601.287170 134.991364,604.054382 
	C148.074249,606.131104 160.244736,604.965576 172.079361,598.137573 
	C187.129761,589.454224 196.042664,566.194275 189.112595,550.450439 
	C185.724091,542.752441 181.220596,536.647949 173.527267,532.943359 
	C169.703842,531.102295 165.901291,529.012085 162.548843,526.436401 
	C151.673035,518.080811 151.590942,504.212128 158.119019,492.063965 
	C164.177414,480.789856 174.472748,473.915070 186.021500,469.051056 
	C195.722153,464.965454 205.801346,462.338196 216.500397,462.993622 
	C242.291061,464.573608 261.549591,476.371796 273.478760,499.510956 
	C278.573029,509.392334 278.921570,519.369324 275.140656,530.049805 
	C269.184937,546.873657 262.240234,563.298767 255.883224,579.955444 
	C247.354645,602.302002 237.923019,624.302429 229.019806,646.507935 
	C218.226746,673.426880 207.153610,700.229675 196.155365,727.063660 
	C186.261353,751.203491 176.549759,775.420715 166.525070,799.510437 
	C159.556259,816.256897 152.576935,832.995728 143.978119,848.988220 
	C136.078293,863.680786 126.613792,877.167358 111.956757,885.927673 
	C104.065338,890.644226 95.353668,893.158508 85.999657,893.023621 
	C81.215401,892.954651 80.133553,894.066284 80.022545,899.000488 
	C79.917603,903.664856 80.059006,908.334290 79.980629,912.999695 
	C79.921967,916.491516 81.509682,918.154236 85.000130,918.003052 
	C85.499199,917.981445 86.000008,917.998108 86.500000,918.000305 
	C124.333336,918.166687 162.166809,918.308533 199.999908,918.516907 
	C209.833847,918.571106 219.666351,918.908264 229.500214,918.950989 
	C232.195328,918.962646 234.601883,920.915039 237.534515,919.575562 
	C240.185074,918.364868 242.086319,917.441467 243.234222,914.079956 
	C245.170639,908.409546 244.578979,902.652954 245.390823,896.984375 
	C245.708069,894.769104 243.606766,894.184265 241.505981,893.947083 
	C237.152863,893.455627 232.785416,892.887634 228.508575,891.960449 
	C212.930862,888.583374 201.256653,880.148560 196.684799,864.446167 
	C194.279266,856.184265 194.828903,847.452209 197.466522,838.989563 
	C202.985733,821.281433 210.717773,804.416260 217.067200,787.024536 
	C219.313690,780.871155 222.500458,775.066772 224.934616,768.973877 
	C226.301880,765.551575 228.411407,764.435425 232.000107,764.441650 
	C281.666595,764.527954 331.333557,764.568115 380.999725,764.414795 
	C387.286163,764.395447 390.984344,766.695679 393.588562,772.460022 
	C403.872772,795.224182 414.404083,817.878357 425.026855,840.487366 
	C435.709625,863.224304 446.477722,885.923828 458.478271,908.011780 
	C459.970703,910.758667 461.227051,913.640625 462.467468,916.514038 
	C462.906799,917.531799 463.082397,918.534851 464.500000,917.750000 
"/>
<path fill="none" opacity="1.000000" stroke="currentColor" stroke-linecap="round" stroke-linejoin="round" stroke-width="7.000000"
	d="
M323.500000,314.750000 
	C323.833344,315.000000 324.441040,315.230377 324.460510,315.502838 
	C325.295746,327.185577 333.228394,333.198151 343.069183,335.731232 
	C354.182617,338.591827 363.803772,334.156342 371.532776,325.529388 
	C383.834991,311.797882 384.373474,289.164185 375.444855,272.529602 
	C367.388275,257.519775 354.540192,248.317551 337.978668,245.110107 
	C314.174042,240.499908 293.119019,246.007629 275.987152,263.987762 
	C264.991821,275.527496 259.274506,289.331940 256.905304,304.985657 
	C253.725494,325.995239 258.642975,345.146637 270.169769,362.386505 
	C278.576294,374.959595 290.800385,383.427155 304.981110,389.047638 
	C320.716980,395.284424 337.362091,398.233582 353.528534,402.901154 
	C374.007294,408.813812 393.381897,416.934784 410.991272,429.012695 
	C433.410736,444.389771 450.328339,464.870270 463.896423,488.060608 
	C480.128540,515.804199 493.920654,544.867065 508.520538,573.489502 
	C523.761963,603.369690 539.123413,633.189026 554.515747,662.991882 
	C564.264954,681.868591 574.523499,700.491577 583.880249,719.558777 
	C590.618286,733.289551 593.975281,748.085388 593.995178,763.500000 
	C594.016541,780.000000 594.053467,796.500244 593.977539,812.999878 
	C593.939209,821.333801 593.288879,829.680603 593.595032,837.996521 
	C593.983887,848.557556 597.931946,858.215393 603.583679,866.945862 
	C612.770874,881.137817 622.712280,894.788086 636.999939,904.500122 
	C641.167053,907.332764 645.214844,910.366760 649.541870,912.929321 
	C652.403503,914.624023 655.320862,914.680786 658.555054,912.584900 
	C672.644165,903.454773 684.756653,892.185913 694.915710,878.935364 
	C701.522461,870.318298 707.464111,861.147644 710.483276,850.495239 
	C712.193665,844.460815 712.953857,838.254028 712.973755,831.999939 
	C713.041931,810.500122 712.938538,788.999756 713.018066,767.500061 
	C713.091003,747.778259 718.378235,729.443176 727.421326,711.959290 
	C734.644348,697.994202 740.967041,683.565979 748.049377,669.524902 
	C757.347961,651.090027 766.970825,632.818054 776.535461,614.518555 
	C777.785461,612.127014 779.804749,610.332397 782.500000,609.500000 
"/>
<path fill="none" opacity="1.000000" stroke="currentColor" stroke-linecap="round" stroke-linejoin="round" stroke-width="7.000000"
	d="
M787.250000,597.500000 
	C786.666687,599.000000 786.152283,600.531372 785.486633,601.993896 
	C783.714172,605.888611 782.498474,609.527344 784.277527,614.086792 
	C785.327942,616.778564 784.412781,620.368896 783.961304,623.494385 
	C780.265686,649.075806 779.549011,674.721436 781.435852,700.504700 
	C782.954773,721.259277 786.542969,741.592957 792.532288,761.490295 
	C798.082703,779.929932 806.207031,797.218201 816.488403,813.507324 
	C826.109009,828.749573 837.378784,842.666138 850.007629,855.492493 
	C868.005432,873.771912 888.671204,888.346436 911.480469,900.038086 
	C933.386536,911.266602 956.377075,919.271912 980.507568,923.960999 
	C993.703247,926.525269 1006.996826,928.168213 1020.492737,928.688110 
	C1029.060913,929.018127 1037.579956,928.826416 1045.983765,927.858948 
	C1065.571167,925.603882 1084.754639,921.800903 1103.601318,915.293335 
	C1126.554810,907.367676 1147.418945,895.937622 1166.336304,881.288574 
	C1184.700928,867.067627 1199.800171,849.395203 1211.942017,829.464661 
	C1217.450317,820.422852 1222.333252,811.000000 1227.500000,801.750000 
"/>
<path fill="none" opacity="1.000000" stroke="currentColor" stroke-linecap="round" stroke-linejoin="round" stroke-width="7.000000"
	d="
M325.500000,315.000000 
	C327.833344,314.833313 330.176422,314.441223 332.498199,314.541656 
	C339.923035,314.862823 346.277527,312.511261 349.880676,305.934631 
	C353.797913,298.784637 352.816620,291.155853 348.414978,284.556702 
	C339.167877,270.692993 322.270416,267.305878 307.614349,276.188660 
	C284.390686,290.264130 278.005737,322.236481 298.011108,344.990234 
	C306.432861,354.569000 317.534515,359.605621 329.505066,362.982025 
	C350.371735,368.867676 371.756714,373.140839 391.943024,381.143738 
	C411.531921,388.909851 429.701050,399.368622 446.045502,412.945221 
	C470.755615,433.470886 488.545959,459.333527 503.953857,487.025665 
	C522.515076,520.385193 539.292664,554.687927 557.010315,588.494629 
	C566.285217,606.191895 575.687927,623.822144 584.992432,641.503967 
	C591.032715,652.982788 596.984680,664.508057 603.016602,675.991272 
	C603.915466,677.702454 605.107422,679.225891 607.000000,680.000000 
"/>
<path fill="none" opacity="1.000000" stroke="currentColor" stroke-linecap="round" stroke-linejoin="round" stroke-width="7.000000"
	d="
M703.500000,671.000000 
	C707.101379,669.499023 708.288330,666.032471 709.997498,662.998596 
	C723.614929,638.826355 736.068115,614.036133 748.996033,589.497925 
	C757.683350,573.008789 766.375366,556.521912 774.988831,539.994202 
	C784.703918,521.352722 793.863586,502.403625 804.128845,484.072144 
	C814.919250,464.802917 826.126404,445.835693 841.326477,429.340088 
	C857.012634,412.317017 875.162781,398.937286 895.569763,388.638275 
	C912.844299,379.920197 931.276794,373.942688 950.000671,369.002625 
	C960.163513,366.321289 970.453735,364.050934 980.471985,360.910583 
	C995.774963,356.113678 1008.539185,347.891510 1014.477173,331.991486 
	C1022.321045,310.988068 1015.750732,287.898804 996.863770,276.220306 
	C981.396179,266.656067 963.787842,271.682434 955.567993,284.543457 
	C951.358704,291.129517 951.259033,298.560303 954.618652,305.442078 
	C958.115051,312.604126 964.565430,315.379913 972.502686,315.069275 
	C974.804504,314.979187 977.326111,313.100769 979.661804,316.331940 
	C981.935852,328.022369 964.444885,340.007385 949.472046,335.594818 
	C932.007507,330.447937 924.231995,313.383942 923.430115,299.504028 
	C921.587585,267.611267 949.309509,244.656097 978.494263,243.803436 
	C1012.269226,242.816666 1037.484985,265.373688 1045.339355,295.541809 
	C1054.898804,332.258514 1039.226562,370.798096 1001.930664,387.848389 
	C992.672180,392.080994 982.512024,394.242950 972.509766,396.542511 
	C946.506287,402.520660 921.043762,409.944336 898.487122,424.980652 
	C881.345703,436.407166 867.254639,450.775055 855.972473,467.981964 
	C853.030151,472.469513 848.870667,476.278137 849.854309,482.522949 
	C850.039124,483.695923 848.447937,485.256836 847.481506,486.485474 
	C840.677979,495.134796 835.292908,504.636169 830.500000,514.500000 
"/>
<path fill="none" opacity="1.000000" stroke="currentColor" stroke-linecap="round" stroke-linejoin="round" stroke-width="7.000000"
	d="
M619.500000,611.500000 
	C619.032959,606.896973 621.539307,603.656494 623.820312,599.891174 
	C629.878723,589.890137 634.700745,579.185974 639.581970,568.537537 
	C641.341125,564.699890 639.069519,561.709229 637.809631,559.091675 
	C631.217102,545.395508 623.702026,532.144348 617.075500,518.463440 
	C608.821655,501.422638 599.511414,484.917908 591.861572,467.561005 
	C588.443665,459.806091 584.425354,452.292847 580.891602,444.549469 
	C574.731384,431.050995 578.407227,421.337891 588.486084,412.983215 
	C591.844727,410.199158 595.528137,407.743011 598.023743,404.015900 
	C598.456116,403.370270 598.749207,402.715698 599.077454,402.037476 
	C601.527588,396.975067 600.854187,395.658173 595.500122,395.495300 
	C585.568665,395.193268 575.800049,396.882599 566.007263,398.060516 
	C551.312622,399.828003 536.641418,401.835358 522.012207,404.079529 
	C516.005493,405.000977 510.085388,406.495453 504.001526,407.017792 
	C501.722778,407.213470 500.646179,409.304077 498.838562,410.345398 
	C500.254791,413.146271 502.593506,414.568451 504.988281,416.019379 
	C525.049194,428.173553 537.784851,446.503937 548.025085,466.987457 
	C554.557617,480.054504 561.385986,492.973297 567.988037,506.006042 
	C578.699158,527.150208 589.343567,548.328186 599.995667,569.502197 
	C605.187622,579.822754 610.269348,590.199646 615.562439,600.467834 
	C616.453247,602.195923 618.166687,603.500000 619.500000,605.000000 
"/>
<path fill="none" opacity="1.000000" stroke="currentColor" stroke-linecap="round" stroke-linejoin="round" stroke-width="7.000000"
	d="
M856.500000,369.000000 
	C855.390808,376.805511 854.436707,384.655792 850.567810,391.357391 
	C718.246094,357.384705 586.580322,358.062988 454.619995,392.253387 
	C450.290894,387.616974 450.139496,380.911438 447.991913,375.002930 
	C447.225586,372.894653 447.632599,370.313629 445.500000,368.750000 
"/>
<path fill="none" opacity="1.000000" stroke="currentColor" stroke-linecap="round" stroke-linejoin="round" stroke-width="7.000000"
	d="
M863.000000,347.500000 
	C856.128418,346.984039 850.037109,343.705688 843.532593,341.883728 
	C830.124084,338.127838 816.673035,334.655457 803.005920,331.969879 
	C787.930359,329.007538 772.732239,326.968628 757.523499,324.832886 
	C735.089600,321.682526 712.528442,320.213501 689.987244,318.688599 
	C675.221497,317.689728 660.333313,318.500000 645.500000,318.500000 
	C637.166687,318.500000 628.783508,317.924286 620.512085,318.640015 
	C609.178040,319.620697 597.785278,319.676788 586.479675,321.363556 
	C578.417786,322.566376 570.143005,322.258972 562.005737,323.058533 
	C550.816101,324.158081 539.600037,325.261902 528.514343,327.087280 
	C507.709534,330.513062 486.919708,334.051910 466.474823,339.403870 
	C458.657166,341.450348 451.232178,345.062164 443.000000,345.500000 
"/>
<path fill="none" opacity="1.000000" stroke="currentColor" stroke-linecap="round" stroke-linejoin="round" stroke-width="7.000000"
	d="
M859.500000,368.500000 
	C854.726379,368.271851 851.064087,365.033020 846.535217,363.863678 
	C827.171753,358.864197 807.811829,354.070587 788.026733,350.836395 
	C771.395325,348.117737 754.701416,345.820221 737.975037,344.269135 
	C726.355591,343.191650 714.711609,341.940308 703.011414,341.293579 
	C674.331726,339.708405 645.665161,340.784210 616.999268,340.646271 
	C605.503601,340.590942 593.983154,341.984406 582.504028,343.043823 
	C566.321350,344.537354 550.125549,346.015472 534.013000,348.100555 
	C521.115295,349.769562 508.274078,352.036011 495.515747,354.579071 
	C481.205536,357.431519 466.980865,360.747711 452.999725,364.999115 
	C450.481842,365.764771 448.101044,366.747528 446.500000,369.000000 
"/>
<path fill="none" opacity="1.000000" stroke="currentColor" stroke-linecap="round" stroke-linejoin="round" stroke-width="7.000000"
	d="
M952.500000,134.500000 
	C950.246826,137.510971 947.876160,139.123749 943.572449,139.901199 
	C936.659180,141.150070 930.367676,145.323578 924.519836,149.527573 
	C916.417297,155.352432 908.967163,161.911163 903.009583,170.007050 
	C902.223328,171.075562 901.568298,172.240738 901.137451,172.915085 
	C891.755310,170.780228 883.587585,168.438217 874.996582,169.980881 
	C869.564209,170.956360 864.492065,172.663757 859.980530,175.973450 
	C856.682739,178.392685 856.861206,180.914154 858.971741,184.019196 
	C863.492249,190.669846 867.441772,197.720917 869.422119,205.519775 
	C874.185547,224.277969 870.531311,240.981506 855.982971,254.481674 
	C839.809143,269.490204 811.514771,265.743774 799.938904,247.037827 
	C792.638489,235.240860 789.608887,222.672119 791.557373,209.008179 
	C792.576782,201.859497 796.066223,195.712799 801.040649,190.539108 
	C803.814148,187.654602 806.837891,184.948395 810.048035,182.564651 
	C812.944824,180.413528 813.019409,177.739731 811.944397,175.021988 
	C807.577515,163.981766 803.747498,152.757156 799.993652,141.502121 
	C799.876953,141.152130 799.748230,140.738556 799.487671,140.514313 
	C796.095825,137.595932 796.561646,134.124084 798.000000,130.500000 
"/>
<path fill="none" opacity="1.000000" stroke="currentColor" stroke-linecap="round" stroke-linejoin="round" stroke-width="7.000000"
	d="
M703.500000,677.500000 
	C704.638062,672.510742 701.237305,669.331970 699.142517,665.423584 
	C694.993286,657.682312 691.674561,649.496399 687.996948,641.501404 
	C685.846863,636.827087 683.575012,632.206482 681.528625,627.487610 
	C679.860840,623.641785 680.115295,619.704346 682.018677,616.009644 
	C694.649353,591.491089 707.283508,566.974060 720.015747,542.508179 
	C730.271423,522.801086 740.681335,503.174377 750.994812,483.497284 
	C757.861511,470.396027 764.409973,457.165375 772.876160,444.914398 
	C780.564575,433.788788 790.366272,425.274750 801.502319,418.003571 
	C802.818604,417.144135 804.321960,416.502350 805.460266,415.456726 
	C806.848694,414.181152 809.736328,413.311768 808.800537,411.083771 
	C808.193604,409.638672 805.780945,408.519623 803.978455,408.090637 
	C798.705811,406.835724 793.341003,405.956726 787.998596,405.008026 
	C771.254822,402.034637 754.400879,399.888855 737.521301,397.825928 
	C730.520630,396.970367 723.505615,396.248077 716.490601,395.602203 
	C714.376892,395.407623 711.413940,394.267944 710.072876,397.035309 
	C708.641602,399.988800 710.061646,402.803711 712.046021,404.957581 
	C716.542358,409.838043 722.575439,412.999176 727.003723,417.996704 
	C731.534729,423.110199 733.056152,428.659698 731.148254,435.541107 
	C729.677856,440.844269 727.318726,445.678375 724.913025,450.456177 
	C715.627319,468.897461 705.965942,487.149139 696.510559,505.505432 
	C688.625854,520.812317 680.851868,536.176147 672.995667,551.497742 
	C661.023560,574.846436 649.148132,598.238586 637.934448,621.968994 
	C631.631531,635.307556 624.901489,648.460022 617.896667,661.444275 
	C614.607666,667.540833 612.841736,674.514465 607.614685,679.617432 
	C606.570312,680.637085 607.000061,683.166687 606.750061,685.000000 
"/>
<path fill="none" opacity="1.000000" stroke="currentColor" stroke-linecap="round" stroke-linejoin="round" stroke-width="7.000000"
	d="
M507.250000,133.000000 
	C509.334869,135.780029 507.028442,137.631119 506.135315,140.049957 
	C502.796844,149.091660 499.971680,158.324203 497.013580,167.504379 
	C495.784943,171.317368 494.706268,175.178665 493.448273,179.390060 
	C494.297668,181.949341 496.904694,183.349106 499.040558,184.945724 
	C517.608154,198.825409 517.896423,218.544144 510.411652,237.465057 
	C506.306427,247.842743 499.803619,256.571808 488.989288,260.973694 
	C467.787994,269.603485 445.467773,258.407562 437.479736,237.007568 
	C432.065308,222.502182 434.496857,208.670776 440.463684,194.984161 
	C443.004059,189.157089 447.114288,184.140472 449.000000,178.000000 
"/>
<path fill="none" opacity="1.000000" stroke="currentColor" stroke-linecap="round" stroke-linejoin="round" stroke-width="7.000000"
	d="
M796.000000,136.500000 
	C793.053040,137.941315 790.765076,140.191940 788.489441,142.489548 
	C782.186707,148.853195 775.782837,155.117188 769.515076,161.514755 
	C763.947510,167.197647 763.785400,168.385483 767.005371,175.497574 
	C769.958923,182.021271 771.592529,188.651382 771.140198,196.008621 
	C770.597595,204.832626 767.178162,212.184387 762.000793,219.000595 
	C753.408447,230.312866 743.225891,238.939301 729.076721,243.251678 
	C716.152710,247.190674 695.739014,240.177094 687.875793,226.069229 
	C678.666382,209.546066 683.811096,187.323593 695.006042,175.005493 
	C702.059814,167.243958 710.375488,161.222137 719.981323,156.957916 
	C721.473999,156.295273 722.718018,155.072433 724.191956,154.027161 
	C718.912903,136.758286 707.497986,125.384743 690.955627,119.117111 
	C687.245361,117.711342 685.588013,115.589897 684.988098,112.001991 
	C682.708374,98.367241 677.378906,85.856300 670.445740,74.031807 
	C666.240112,66.859184 661.477051,60.014572 657.015442,52.990185 
	C655.835632,51.132641 654.410950,49.589054 652.500000,48.500000 
"/>
<path fill="none" opacity="1.000000" stroke="currentColor" stroke-linecap="round" stroke-linejoin="round" stroke-width="7.000000"
	d="
M834.750000,1052.500000 
	C835.000000,1053.166626 835.650818,1054.016846 835.441833,1054.473389 
	C828.819519,1068.937988 822.281982,1083.463379 812.987305,1096.490967 
	C801.865601,1112.079468 788.026733,1124.913330 772.498596,1135.998047 
	C754.797180,1148.634155 735.287415,1158.205566 716.496094,1168.993164 
	C698.912109,1179.087646 682.793335,1191.045532 668.996704,1205.996948 
	C663.758789,1211.673340 660.208008,1218.666992 654.635071,1224.137573 
	C653.382202,1225.367432 653.833313,1228.333374 653.500000,1230.500000 
"/>
<path fill="none" opacity="1.000000" stroke="currentColor" stroke-linecap="round" stroke-linejoin="round" stroke-width="7.000000"
	d="
M947.500000,140.500000 
	C948.071777,147.089218 944.263611,152.332108 941.945251,157.977509 
	C932.409546,181.197952 922.671326,204.335281 912.998535,227.499405 
	C903.671570,249.835373 894.199036,272.111816 885.045288,294.518494 
	C878.479492,310.590179 872.344788,326.837830 865.987793,342.995209 
	C865.019775,345.455536 862.727844,347.464813 863.500000,350.500000 
"/>
<path fill="none" opacity="1.000000" stroke="currentColor" stroke-linecap="round" stroke-linejoin="round" stroke-width="7.000000"
	d="
M472.000000,1054.000000 
	C483.154755,1079.785767 496.394531,1104.199951 518.014709,1122.983032 
	C530.522705,1133.849731 544.639526,1142.374512 559.005920,1150.489502 
	C578.074890,1161.260742 598.046143,1170.577271 615.440369,1184.076904 
	C627.903931,1193.749878 639.102051,1204.816406 648.001038,1217.999268 
	C649.535095,1220.271851 650.949524,1222.657349 653.500000,1224.000000 
"/>
<path fill="none" opacity="1.000000" stroke="currentColor" stroke-linecap="round" stroke-linejoin="round" stroke-width="7.000000"
	d="
M652.500000,43.500000 
	C653.815796,49.063324 648.681702,51.361012 646.364258,54.911396 
	C637.764771,68.086029 629.634338,81.473419 623.498718,95.999451 
	C621.390442,100.990593 619.741699,106.220795 619.186523,111.519547 
	C618.755432,115.634468 616.875549,117.672768 613.496033,118.989792 
	C599.333740,124.508987 589.671997,134.465622 583.966003,148.486176 
	C581.778320,153.861786 581.593140,154.515884 586.534912,156.928497 
	C592.896057,160.034119 598.671631,163.941772 603.977600,168.525894 
	C619.959900,182.333817 628.903931,206.205383 616.866821,226.922638 
	C609.657837,239.330200 592.779053,249.374985 573.478699,242.056137 
	C554.213806,234.750717 541.350891,221.258408 535.207092,201.934158 
	C532.165222,192.366287 535.004517,182.527512 539.143250,173.566177 
	C540.932800,169.691498 540.998901,167.239349 538.085327,163.924973 
	C529.234558,153.856598 520.028320,144.230743 509.000000,136.500000 
"/>
<path fill="none" opacity="1.000000" stroke="currentColor" stroke-linecap="round" stroke-linejoin="round" stroke-width="7.000000"
	d="
M356.500000,140.500000 
	C356.000000,143.354172 356.866974,145.941391 357.993347,148.502914 
	C367.005310,168.997665 376.130127,189.444107 384.966522,210.014389 
	C395.608093,234.786911 406.080048,259.633209 416.473419,284.511108 
	C424.108948,302.787842 431.521851,321.157776 438.978027,339.508942 
	C440.188843,342.489044 443.281494,344.742371 442.500000,348.500000 
"/>
<path fill="none" opacity="1.000000" stroke="currentColor" stroke-linecap="round" stroke-linejoin="round" stroke-width="7.000000"
	d="
M287.000000,986.500000 
	C287.118591,991.153442 290.204315,994.507202 292.591522,997.936279 
	C305.315399,1016.213135 320.339478,1032.125366 339.440247,1044.095337 
	C355.378510,1054.083496 372.555328,1060.081787 390.996429,1063.022339 
	C413.313477,1066.580688 435.215271,1063.701782 456.988190,1058.945923 
	C461.873810,1057.878784 466.372589,1055.267334 471.500000,1055.000000 
"/>
<path fill="none" opacity="1.000000" stroke="currentColor" stroke-linecap="round" stroke-linejoin="round" stroke-width="7.000000"
	d="
M1024.500000,984.000000 
	C1021.347412,983.190735 1019.124878,985.119873 1018.635132,987.527466 
	C1016.814758,996.476990 1010.519043,1002.728210 1005.324768,1009.362793 
	C995.523865,1021.881531 983.973938,1032.768066 970.523193,1041.535645 
	C952.220276,1053.466064 932.134521,1060.031738 910.496582,1061.961304 
	C896.148682,1063.240967 881.753296,1063.006470 867.517395,1060.883423 
	C858.258423,1059.502197 849.143799,1057.095093 840.024231,1054.899292 
	C838.628540,1054.563232 837.320618,1054.768188 836.000000,1054.500000 
"/>
<path fill="none" opacity="1.000000" stroke="currentColor" stroke-linecap="round" stroke-linejoin="round" stroke-width="7.000000"
	d="
M463.000000,918.500000 
	C461.741394,922.751587 457.893280,924.705261 454.995209,927.495056 
	C445.691406,936.451355 436.261475,945.250916 425.507690,952.511353 
	C404.389679,966.769226 381.420593,976.486816 356.529816,982.131470 
	C340.479980,985.771240 324.392212,987.511169 307.999847,987.004517 
	C302.765259,986.842651 297.639435,985.964294 292.475616,985.155823 
	C289.497681,984.689575 286.151703,986.674316 283.500000,983.750000 
"/>
<path fill="none" opacity="1.000000" stroke="currentColor" stroke-linecap="round" stroke-linejoin="round" stroke-width="7.000000"
	d="
M773.500000,777.500000 
	C773.500000,779.333313 773.475037,781.167114 773.506287,782.999878 
	C773.545898,785.320251 773.638367,787.151550 775.821899,789.190674 
	C778.906982,792.071838 779.966248,796.751282 782.151489,800.409485 
	C792.304504,817.406311 802.609924,834.283020 815.371643,849.606934 
	C826.021545,862.394958 838.338745,873.350525 850.637390,884.346313 
	C853.622009,887.014709 853.725037,888.918762 852.524048,892.009338 
	C849.945374,898.645386 847.876587,905.509583 844.867554,911.938049 
	C842.862244,916.222107 843.059937,919.075745 846.429749,922.567810 
	C863.986694,940.761536 884.578857,954.839661 907.098389,965.797791 
	C924.764099,974.394043 943.397949,981.017029 963.009888,983.933411 
	C977.240967,986.049622 991.469299,988.414551 1006.027283,986.177490 
	C1009.996338,985.567566 1014.499146,984.594177 1018.500000,987.000000 
"/>
<path fill="none" opacity="1.000000" stroke="currentColor" stroke-linecap="round" stroke-linejoin="round" stroke-width="7.000000"
	d="
M802.500000,1039.750000 
	C800.997620,1040.058838 800.922119,1041.201172 800.402527,1042.459717 
	C792.456238,1061.704834 780.625732,1078.039917 765.133789,1092.146851 
	C749.846436,1106.067749 731.641113,1115.028320 713.954895,1124.919434 
	C697.534485,1134.102539 680.763916,1142.661011 666.013306,1154.516602 
	C663.253845,1156.734375 660.660400,1159.159546 658.002014,1161.502441 
	C655.991699,1163.274170 654.159790,1163.547119 651.975037,1161.526978 
	C632.335754,1143.367065 608.423645,1132.055908 584.985779,1120.027710 
	C560.836487,1107.634399 538.957947,1092.403442 523.097168,1069.931396 
	C517.037292,1061.345581 510.649689,1052.730591 508.428406,1042.014893 
	C508.318146,1041.482910 507.166656,1041.166626 506.500000,1040.750000 
"/>
<path fill="none" opacity="1.000000" stroke="currentColor" stroke-linecap="round" stroke-linejoin="round" stroke-width="7.000000"
	d="
M919.000000,1011.500000 
	C916.888916,1008.635742 913.444641,1007.946472 910.467957,1007.114563 
	C885.764282,1000.210693 864.303833,987.402832 844.513184,971.483582 
	C838.428406,966.589050 832.525269,961.469116 826.481995,956.521973 
	C824.986511,955.297729 823.268311,954.345520 821.463074,953.142029 
	C814.194031,960.621765 809.241577,969.557617 803.007019,977.505493 
	C802.123047,978.632446 801.347961,979.844116 800.497681,980.998291 
	C795.507690,987.771240 795.561401,988.038574 802.498230,993.002441 
	C821.550476,1006.635864 842.540527,1016.155457 865.538696,1020.284485 
	C879.010315,1022.703247 892.882141,1023.817261 906.497498,1019.991089 
	C911.088989,1018.700745 915.161560,1016.579834 918.551208,1013.049133 
	C920.906433,1010.596008 924.359680,1010.828125 927.500000,1010.500000 
"/>
<path fill="none" opacity="1.000000" stroke="currentColor" stroke-linecap="round" stroke-linejoin="round" stroke-width="7.000000"
	d="
M304.000000,575.000000 
	C299.296417,579.957214 297.615631,586.521912 295.098877,592.541321 
	C286.014191,614.269592 277.357147,636.176331 268.493073,657.997192 
	C260.024963,678.843445 251.555634,699.689819 242.913742,720.464111 
	C242.051651,722.536499 241.752228,724.403137 242.000000,726.500000 
"/>
<path fill="none" opacity="1.000000" stroke="currentColor" stroke-linecap="round" stroke-linejoin="round" stroke-width="7.000000"
	d="
M304.500000,566.500000 
	C303.215942,571.352844 305.479034,574.896973 307.755432,579.131470 
	C313.180725,589.223633 317.350830,599.992249 321.996521,610.501526 
	C333.340546,636.163513 344.713013,661.812988 355.978180,687.509583 
	C360.775421,698.452332 365.401459,709.472107 369.924835,720.530762 
	C370.585876,722.146912 371.884064,724.025696 370.500000,726.000000 
"/>
<path fill="none" opacity="1.000000" stroke="currentColor" stroke-linecap="round" stroke-linejoin="round" stroke-width="8.000000"
	d="
M373.500000,726.750000 
	C370.256195,726.022888 367.230682,727.579895 363.999786,727.570740 
	C325.333466,727.461182 286.666565,727.462646 248.000183,727.566345 
	C244.677109,727.575195 240.956619,725.319641 238.000000,728.750000 
"/>
<path fill="none" opacity="1.000000" stroke="currentColor" stroke-linecap="round" stroke-linejoin="round" stroke-width="7.000000"
	d="
M514.500000,987.500000 
	C513.500000,987.666687 512.176941,987.478455 511.547180,988.051819 
	C495.155945,1002.973572 475.962402,1012.974121 454.969666,1019.400940 
	C434.821991,1025.569092 414.391968,1027.162964 394.003632,1019.989624 
	C392.808960,1019.569336 391.278259,1019.317139 390.566620,1018.445618 
	C387.332031,1014.483948 383.013062,1014.294189 378.500000,1014.500000 
"/>
<path fill="none" opacity="1.000000" stroke="currentColor" stroke-linecap="round" stroke-linejoin="round" stroke-width="7.000000"
	d="
M768.000000,1017.000000 
	C765.463684,1017.640808 764.182495,1019.851624 762.524597,1021.524414 
	C749.543091,1034.622192 735.966980,1047.054199 721.498962,1058.498657 
	C701.933105,1073.975708 680.796753,1087.108521 659.496826,1099.994751 
	C656.019287,1102.098633 652.709290,1102.244507 648.965088,1100.059937 
	C628.851807,1088.324463 608.809631,1076.459717 590.542664,1061.946289 
	C574.821106,1049.455200 559.330139,1036.630249 546.086182,1021.424927 
	C543.680481,1018.662903 541.821228,1017.365356 538.490356,1019.484802 
	C527.982056,1026.170776 517.807068,1033.323242 508.000000,1041.000000 
"/>
<path fill="none" opacity="1.000000" stroke="currentColor" stroke-linecap="round" stroke-linejoin="round" stroke-width="7.000000"
	d="
M512.000000,987.500000 
	C505.000000,977.666687 498.087463,967.769409 490.966034,958.024841 
	C486.925507,952.496094 486.026703,952.645874 480.981323,956.978210 
	C461.741180,973.499390 442.027466,989.399780 418.972565,1000.442749 
	C410.407318,1004.545410 401.865479,1008.842896 392.500061,1011.000305 
	C390.100037,1011.553223 388.622070,1013.376160 387.000000,1015.000000 
"/>
<path fill="none" opacity="1.000000" stroke="currentColor" stroke-linecap="round" stroke-linejoin="round" stroke-width="7.000000"
	d="
M351.000000,135.250000 
	C354.084747,138.645737 358.303467,138.987686 362.422089,140.253525 
	C370.721710,142.804352 377.957367,147.966660 384.923492,153.103729 
	C390.604370,157.292999 396.812195,161.302322 400.811096,167.129623 
	C404.129150,171.964737 408.137238,172.219742 412.464417,170.884628 
	C421.084625,168.224899 429.463043,169.025635 438.014252,170.936157 
	C442.916107,172.031326 446.089386,175.951736 450.500000,177.750000 
"/>
<path fill="none" opacity="1.000000" stroke="currentColor" stroke-linecap="round" stroke-linejoin="round" stroke-width="7.000000"
	d="
M767.750000,1015.500000 
	C770.253906,1018.785767 774.500000,1019.346863 777.572876,1021.912720 
	C785.142395,1028.233154 794.130005,1032.742310 801.000000,1040.000000 
"/>
</svg>