<svg version="1.1" id="Layer_1" xmlns="http://www.w3.org/2000/svg" xmlns:xlink="http://www.w3.org/1999/xlink" x="0px" y="0px"
	 width="100%" viewBox="0 0 1008 1024" enable-background="new 0 0 1008 1024" xml:space="preserve">
<path fill="currentColor" opacity="1.000000" stroke="none" 
	d="
M323.000000,462.842255 
	C370.991150,462.846497 418.482330,462.856354 465.973480,462.852478 
	C473.723206,462.851868 473.698120,462.823761 473.695648,455.318512 
	C473.686859,428.490295 473.663910,401.661987 473.740204,374.833984 
	C473.749939,371.412567 473.120392,368.342560 471.558655,365.260468 
	C451.230835,325.144287 430.982056,284.988037 410.739716,244.828583 
	C409.785614,242.935776 408.328247,241.187180 408.564453,238.476105 
	C411.989716,236.677475 415.969879,237.076981 419.544830,237.306564 
	C430.228455,237.992599 440.857697,236.865723 451.514526,236.952332 
	C455.554626,236.985168 457.839783,238.229797 459.596222,241.976334 
	C471.189484,266.705200 482.988617,291.337646 494.760193,315.982635 
	C495.663727,317.874268 496.122498,320.161469 498.468597,321.165222 
	C501.201172,320.201202 501.694427,317.506561 502.723846,315.362640 
	C514.042786,291.789154 525.455078,268.257294 536.414673,244.516861 
	C538.959167,239.004990 542.160767,236.765533 548.170471,236.988297 
	C559.981506,237.426102 571.813782,237.279877 583.637024,237.404617 
	C587.879578,237.449387 588.390686,238.470459 586.256592,242.669830 
	C571.016357,272.658691 555.777527,302.648315 540.505249,332.620850 
	C535.137634,343.155029 529.742981,353.676666 524.225708,364.132751 
	C522.155518,368.056122 521.082336,372.025421 521.105347,376.526306 
	C521.241577,403.187286 521.310669,429.850250 521.090332,456.509979 
	C521.047791,461.656097 522.704956,462.901825 527.682800,462.891327 
	C589.670898,462.760803 651.659424,462.845825 713.647888,462.886017 
	C721.172974,462.890869 721.226624,462.960144 721.213989,470.380341 
	C721.202942,476.879059 721.164856,483.377716 721.128723,489.876373 
	C721.088562,497.112427 720.985718,497.213531 713.911682,497.212677 
	C661.754700,497.206268 609.597717,497.189026 557.440735,497.194580 
	C467.290863,497.204193 377.140961,497.227600 286.991089,497.246185 
	C280.292572,497.247559 280.418213,497.182434 280.508240,490.599670 
	C280.599274,483.944641 280.213135,477.284210 280.103912,470.625061 
	C279.982788,463.238190 280.301605,462.910187 287.508026,462.887238 
	C299.171936,462.850067 310.835999,462.855713 323.000000,462.842255 
z"/>
<path fill="currentColor" opacity="1.000000" stroke="none" 
	d="
M630.746582,107.989792 
	C633.637878,108.985451 632.298462,110.707718 631.811951,112.144341 
	C620.008240,147.001648 608.121277,181.830948 596.419739,216.722427 
	C595.041504,220.831909 593.044495,222.429764 588.570007,222.419159 
	C528.241760,222.276215 467.912872,222.259888 407.584717,222.424789 
	C402.686218,222.438171 400.694275,220.791580 399.147247,216.233704 
	C387.587921,182.177582 375.704163,148.231644 364.002594,114.223457 
	C363.385223,112.429245 362.060028,110.644875 362.859222,108.546135 
	C363.933289,107.425713 365.062317,107.978867 366.135925,108.354996 
	C384.680389,114.851936 403.366791,120.999474 421.021576,129.760300 
	C426.823761,132.639496 431.628052,136.683792 434.137299,142.916672 
	C437.836853,152.106262 433.541199,161.833466 424.223816,165.292480 
	C421.907318,166.152435 419.522736,166.828964 416.786591,167.713577 
	C418.509186,174.362045 423.429657,177.737656 428.478149,180.835785 
	C441.718842,188.961258 464.476532,189.416885 475.472931,169.870117 
	C477.313843,166.597748 477.742584,164.054077 475.273407,160.862961 
	C468.137634,151.640945 461.361633,142.140656 454.231659,132.913986 
	C452.045685,130.085175 451.893524,128.131744 454.108368,125.089241 
	C467.541351,106.636604 480.728485,88.004906 493.981598,69.421516 
	C497.249573,64.839165 497.801270,64.825226 500.953857,69.209343 
	C514.279419,87.740364 527.561096,106.303749 541.029114,124.730820 
	C543.365295,127.927177 543.529785,130.131790 541.012756,133.420837 
	C533.928101,142.678360 527.372253,152.338577 520.423401,161.703125 
	C518.116333,164.812241 517.992126,167.383865 520.011169,170.756180 
	C533.841675,193.856354 566.591919,188.500809 578.662415,169.941513 
	C578.997070,169.426880 579.056702,168.733307 579.247864,168.112503 
	C577.359070,166.498016 575.080383,166.597885 573.069214,165.962234 
	C566.315735,163.827744 561.794739,159.505020 560.379822,152.492813 
	C559.031067,145.808929 561.784973,140.413010 566.615234,136.010025 
	C571.477051,131.578293 577.232788,128.580658 583.291687,126.109375 
	C598.866272,119.756844 614.469849,113.481918 630.746582,107.989792 
z"/>
<path fill="currentColor" opacity="1.000000" stroke="none" 
	d="
M541.956421,604.767456 
	C542.646606,613.799194 545.842957,617.913818 552.489502,618.789307 
	C562.041809,620.047668 567.500061,615.511230 567.668396,605.665283 
	C567.882019,593.169983 567.880859,580.666687 567.689209,568.171204 
	C567.622803,563.839233 568.946472,561.566956 573.505981,561.465210 
	C576.492432,561.398621 579.469666,560.917847 582.450928,560.621887 
	C588.805969,559.990967 589.267822,560.246460 589.151794,566.371582 
	C588.861816,581.682922 590.407288,597.055176 588.202637,612.296326 
	C586.588867,623.452698 581.050110,632.258545 569.901123,635.814453 
	C558.995300,639.292786 548.473816,638.195740 539.540588,630.027100 
	C538.568604,629.138245 537.511047,628.342834 535.925293,627.036133 
	C530.395691,633.503296 523.764832,637.719360 514.908203,637.687195 
	C506.300842,637.655945 499.491455,634.184021 493.869659,627.447083 
	C481.719971,640.833740 466.460480,638.073853 451.599304,636.613586 
	C446.033752,636.066711 441.137329,633.345642 437.045380,629.425232 
	C435.522095,627.965759 434.002716,626.513184 431.955688,628.491516 
	C424.182739,636.004150 414.349609,637.830017 404.225586,637.742615 
	C388.470459,637.606628 372.494781,639.015076 357.272461,633.186707 
	C355.375946,632.460510 353.695984,633.135742 351.939606,633.669617 
	C335.190399,638.760254 318.003021,639.009521 300.940216,636.758301 
	C282.852936,634.371887 270.574615,619.286499 269.962982,600.471497 
	C269.768158,594.477783 269.796509,588.472046 269.906342,582.475159 
	C269.965424,579.251221 268.639618,577.999023 265.450165,578.053528 
	C260.239136,578.142517 255.117264,578.562012 250.375885,580.927063 
	C241.496887,585.355896 239.557053,595.270569 246.194260,602.632263 
	C249.426483,606.217285 253.096924,609.417419 256.219849,613.088806 
	C267.001038,625.763245 265.126282,644.142944 252.079468,654.396240 
	C242.753433,661.725342 232.055481,665.664185 220.256653,666.173279 
	C211.295425,666.559937 202.351242,666.843262 193.452576,664.460876 
	C173.040894,658.996094 161.077591,643.921326 160.647217,622.692993 
	C160.464798,613.696167 161.715591,605.116333 166.189911,597.148865 
	C169.094070,591.977234 173.472260,589.037231 179.210724,588.025513 
	C180.647995,587.772095 182.307373,587.405884 183.321259,588.939453 
	C184.202377,590.272278 183.294357,591.499512 182.705429,592.666321 
	C177.776642,602.431763 177.100830,612.886108 178.473831,623.412048 
	C180.530334,639.177795 196.317368,650.920288 212.930984,649.564758 
	C220.791473,648.923401 228.498291,647.809570 235.097260,642.894226 
	C242.089020,637.686340 243.215057,630.782227 237.855423,623.907593 
	C235.921066,621.426453 233.735474,619.027832 231.272156,617.090393 
	C212.689774,602.475403 221.467316,575.883484 238.461456,567.548706 
	C251.524231,561.142029 265.176361,561.289429 278.978119,564.009399 
	C290.206909,566.222351 290.067261,566.396057 290.255951,577.713867 
	C290.397491,586.203857 290.693054,594.698608 291.217651,603.172852 
	C291.773712,612.155334 297.578461,618.155518 306.467957,618.699402 
	C312.902893,619.093140 319.381287,618.776245 326.401581,618.776245 
	C319.584961,610.985901 317.125763,602.094055 318.235168,592.263550 
	C319.197845,583.732849 322.289734,576.160400 328.909363,570.321106 
	C341.099030,559.568237 363.160034,558.584778 375.932648,568.260193 
	C390.346283,579.178711 393.014282,597.710693 382.592346,618.713379 
	C392.532593,618.307251 402.089020,620.290039 411.431702,617.430176 
	C416.592224,615.850403 418.947296,611.609192 418.966064,606.218506 
	C419.002563,595.720093 418.958405,585.221375 419.014954,574.723145 
	C419.049744,568.263794 419.632050,567.690369 425.971069,566.851868 
	C428.774353,566.481079 431.567932,566.035217 434.362549,565.601868 
	C439.914276,564.741089 440.257172,565.017395 440.263855,570.826904 
	C440.274353,579.992615 440.198547,589.158691 440.268646,598.323792 
	C440.288910,600.974670 440.488770,603.656555 440.943054,606.265625 
	C442.298462,614.050659 446.911499,618.212158 454.819397,618.721497 
	C458.637970,618.967407 462.483643,618.912048 466.313751,618.833435 
	C473.501740,618.686035 476.418243,615.828369 476.619080,608.297607 
	C476.823364,600.637146 476.688690,592.967102 476.671783,585.301392 
	C476.653290,576.913635 476.638031,576.915894 484.865631,576.804138 
	C487.198456,576.772461 489.585480,577.027649 491.852722,576.621338 
	C497.034302,575.692749 498.178711,578.157043 498.074493,582.742798 
	C497.889008,590.902771 497.972534,599.075867 498.205902,607.236023 
	C498.397034,613.920837 501.658295,617.944824 507.058289,618.827698 
	C515.238708,620.165039 520.459473,616.162048 520.685852,607.775391 
	C520.964539,597.450623 520.908875,587.110413 520.709900,576.782349 
	C520.628662,572.562683 522.134155,570.657593 526.396912,570.519226 
	C529.711548,570.411560 533.050232,569.976501 536.303650,569.318359 
	C540.600281,568.449219 542.108398,570.185791 542.059570,574.306519 
	C541.941223,584.303467 541.978455,594.302246 541.956421,604.767456 
M340.414337,589.076355 
	C338.433167,597.702271 339.578674,605.738220 345.651093,612.443848 
	C351.763977,619.194275 359.150360,618.464172 363.747986,610.649963 
	C369.165344,601.442444 368.434296,591.844482 364.443970,582.352661 
	C363.231781,579.469177 360.714081,577.800476 357.617065,576.972168 
	C349.836639,574.891052 344.164703,578.627625 340.414337,589.076355 
z"/>
<path fill="currentColor" opacity="1.000000" stroke="none" 
	d="
M394.232178,268.949707 
	C410.056244,319.846893 424.789886,370.662201 441.230652,420.950256 
	C443.452179,427.745361 445.315826,434.657745 447.553284,441.447235 
	C448.685425,444.882538 447.491699,446.090057 444.164215,446.088013 
	C431.003662,446.080017 417.842773,446.063599 404.682739,446.154999 
	C401.559479,446.176697 400.355774,444.569427 399.582672,441.814240 
	C396.974915,432.520477 394.105591,423.300018 391.512482,414.002350 
	C390.709076,411.121674 389.236084,409.951660 386.226532,409.957977 
	C369.401672,409.993408 352.575775,409.962524 335.752258,409.772552 
	C332.802399,409.739258 332.094666,411.396454 331.431610,413.568542 
	C328.759003,422.323517 325.863251,431.017090 323.461884,439.845398 
	C322.225952,444.389038 320.215973,446.475403 315.164032,446.257202 
	C305.685547,445.847809 296.177429,446.157623 286.682098,446.094910 
	C281.071472,446.057861 280.797852,445.612579 282.443726,440.433228 
	C296.656738,395.705780 310.854004,350.973267 325.079224,306.249634 
	C329.467743,292.452240 334.079010,278.723175 338.256897,264.862915 
	C339.406555,261.048981 341.380249,259.942719 345.059937,259.976166 
	C357.219757,260.086670 369.381561,259.972290 381.542603,259.951569 
	C390.943451,259.935547 390.943451,259.940430 394.232178,268.949707 
M348.173950,355.577911 
	C346.983002,361.166809 344.269287,366.397064 343.529175,372.479675 
	C355.755219,372.479675 367.260284,372.479675 379.811768,372.479675 
	C373.586121,352.982361 368.851288,333.855743 361.641663,315.367065 
	C356.171356,328.378784 352.416382,341.635315 348.173950,355.577911 
z"/>
<path fill="currentColor" opacity="1.000000" stroke="none" 
	d="
M590.654602,282.685120 
	C609.908203,261.728699 634.006714,255.218826 661.105835,257.641998 
	C678.464111,259.194183 693.688416,265.711578 705.544556,278.888519 
	C717.377014,292.039124 721.585327,308.120941 722.881470,325.249237 
	C723.069275,327.731171 721.683044,328.971832 719.368408,329.210846 
	C707.118530,330.475922 694.868896,331.746674 682.609131,332.909454 
	C679.792114,333.176636 679.047852,331.222748 678.746521,328.773834 
	C678.136719,323.818176 677.233704,318.918030 675.837891,314.097565 
	C672.958496,304.153564 667.114197,297.093414 656.562073,295.444977 
	C644.652405,293.584442 634.359802,296.729584 627.333862,307.274933 
	C621.627441,315.839691 619.259338,325.651337 618.615173,335.634888 
	C617.672668,350.243378 617.063293,364.931702 619.318054,379.522156 
	C620.214600,385.323883 622.028625,390.881714 624.667664,396.099670 
	C629.938965,406.522156 638.696106,411.324097 650.227051,411.225037 
	C661.569580,411.127625 670.615540,407.051453 675.922668,396.363251 
	C678.319336,391.536713 680.023254,386.531219 680.886169,381.237274 
	C681.410767,378.018707 682.863342,376.908234 686.362671,377.291016 
	C696.949402,378.449036 707.575562,379.304993 718.205322,379.981415 
	C722.230774,380.237579 723.870850,381.532166 723.297913,385.780334 
	C719.426270,414.485840 705.262878,435.583649 677.217957,444.904602 
	C648.120056,454.575531 609.566284,449.234192 588.008118,420.704987 
	C577.311646,406.549683 571.338806,390.382751 569.460632,372.823761 
	C567.266113,352.306458 567.897034,331.928986 574.291382,312.059967 
	C577.752930,301.304199 583.197449,291.632812 590.654602,282.685120 
z"/>
<path fill="currentColor" opacity="1.000000" stroke="none" 
	d="
M240.441132,744.568726 
	C238.708511,751.966309 237.361954,758.964233 239.179794,766.187927 
	C241.135513,773.959473 245.891220,778.569214 253.828156,779.963989 
	C261.447937,781.303040 269.122040,780.653992 276.771790,780.723633 
	C288.600250,780.831299 300.431671,780.847839 312.259674,780.712708 
	C325.398560,780.562561 330.723877,775.116333 330.739960,762.091858 
	C330.767731,739.599121 330.946228,717.104004 330.651367,694.615234 
	C330.579193,689.110962 332.404114,686.665833 337.733734,686.157898 
	C340.863647,685.859619 343.985809,685.128723 347.020966,684.271973 
	C351.255707,683.076416 352.998260,684.682312 352.972839,688.861511 
	C352.931335,695.692444 352.938110,702.523621 352.918884,709.354736 
	C352.867310,727.681152 352.799713,746.007629 352.764709,764.334045 
	C352.746674,773.786682 356.513367,778.386108 365.916138,780.172913 
	C371.356323,781.206726 376.868286,781.272522 382.286072,780.036255 
	C390.201294,778.229980 393.608063,774.127991 393.731842,765.971069 
	C393.898712,754.977051 394.029724,743.972717 393.720276,732.985657 
	C393.581146,728.046204 395.414368,726.006042 400.170685,725.706421 
	C403.311218,725.508606 406.418915,724.755554 409.535370,724.216858 
	C415.277222,723.224426 416.063965,723.822815 416.088928,729.538574 
	C416.137634,740.701355 416.087952,751.864746 416.177277,763.027100 
	C416.263184,773.754089 419.939423,778.220703 430.369354,780.220642 
	C435.809448,781.263794 441.353424,781.146545 446.803833,780.484985 
	C452.818451,779.754883 455.814331,776.210571 455.937256,769.980042 
	C456.121246,760.653137 456.173218,751.319885 456.050995,741.992371 
	C455.992523,737.529785 457.718597,735.869934 462.260162,735.814148 
	C478.321655,735.616516 478.306335,735.485596 478.287964,751.272644 
	C478.281372,756.936768 478.112396,762.615967 478.457245,768.261475 
	C478.936310,776.104126 482.853424,780.368591 489.393097,780.834900 
	C497.632690,781.422424 502.493073,777.319031 502.693207,768.982971 
	C502.953003,758.158997 503.028809,747.319031 502.727356,736.498596 
	C502.590607,731.590149 504.614777,729.930908 509.106934,729.855591 
	C512.093567,729.805603 515.080078,729.411133 518.054993,729.069946 
	C524.046692,728.382751 524.878845,729.012878 524.924500,734.920715 
	C524.988831,743.250854 524.949219,751.581726 524.968384,759.912292 
	C524.974121,762.410828 524.925293,764.915588 525.078064,767.406616 
	C525.602905,775.967957 530.491699,780.756042 538.669189,780.824158 
	C547.236145,780.895508 552.373291,776.228088 552.682190,767.350281 
	C553.006470,758.030945 552.791687,748.692810 552.803528,739.362854 
	C552.808411,735.530823 552.793762,731.698730 552.781189,727.866699 
	C552.758484,720.956116 552.919617,720.756226 559.893127,719.918152 
	C563.199036,719.520935 566.516235,719.217957 569.823303,718.829956 
	C573.109253,718.444397 575.041016,719.705322 574.976807,723.170166 
	C574.674500,739.485657 575.720093,755.820190 574.407349,772.118713 
	C573.487305,783.540466 568.877258,792.775085 557.720642,797.294678 
	C545.102173,802.406494 533.261658,800.883423 522.640930,792.006104 
	C521.632874,791.163513 520.619324,790.327515 519.039612,789.016479 
	C514.962769,793.854187 510.242889,797.622620 504.027100,799.141235 
	C494.231140,801.534546 485.428314,799.566589 477.886932,793.041870 
	C475.100281,790.630859 473.280792,789.991760 470.423401,792.763367 
	C465.814270,797.234192 459.924957,799.172729 453.641022,799.638306 
	C440.815582,800.588379 427.608093,802.028015 416.439209,794.035339 
	C410.925354,790.089478 407.692810,790.080872 402.178192,794.130615 
	C389.881958,803.160400 359.318420,802.819641 347.523651,789.589050 
	C347.109650,789.124634 346.455719,788.874084 345.543121,788.284607 
	C334.840271,799.013489 321.245331,800.243103 307.128113,800.081970 
	C291.302063,799.901367 275.471649,800.139526 259.644135,800.039185 
	C249.800079,799.976746 240.489914,797.714417 232.164780,792.223572 
	C218.377228,783.129944 213.102356,763.433899 220.654572,748.773804 
	C224.489273,741.330017 231.753281,738.421387 239.236420,737.871765 
	C244.218460,737.505859 240.637344,741.865112 240.441132,744.568726 
z"/>
<path fill="currentColor" opacity="1.000000" stroke="none" 
	d="
M790.580688,779.294556 
	C787.288086,788.773743 780.524414,794.038391 771.716248,796.966064 
	C765.196106,799.133362 758.469910,800.113953 751.564575,800.074219 
	C735.233582,799.980347 718.901855,800.023254 702.570435,800.013245 
	C691.736084,800.006592 681.773132,797.448730 673.541382,789.966492 
	C671.826904,788.408142 670.329163,787.895081 668.335693,789.592224 
	C655.115356,800.846802 639.236633,801.812256 623.024902,800.836792 
	C614.038147,800.296021 605.247986,798.390015 596.652527,795.512878 
	C592.802063,794.223999 591.521912,792.152466 591.659485,788.192383 
	C592.059509,776.679138 590.145325,774.977844 603.605896,778.449585 
	C608.261963,779.650574 613.114258,780.105042 617.888489,780.823547 
	C619.008118,780.992065 620.174683,780.848511 622.082642,780.848511 
	C621.851624,774.200806 619.609802,768.272522 618.270996,762.241882 
	C615.058838,747.772217 611.169434,733.462097 606.594238,719.363953 
	C605.218933,715.126221 606.680603,713.608826 610.535400,712.802795 
	C627.000854,709.359863 624.353149,707.213623 629.242310,723.590393 
	C634.482666,741.143372 639.033813,758.883850 642.384338,776.908203 
	C642.932129,779.854736 644.232300,780.763550 647.232361,779.954834 
	C654.486511,777.999390 658.679993,772.233643 658.701111,763.235107 
	C658.754639,740.404541 658.837097,717.572021 658.571167,694.744202 
	C658.511719,689.640259 659.884888,686.912231 665.182556,686.440247 
	C668.486389,686.145813 671.773682,685.447449 675.011597,684.687927 
	C678.790894,683.801270 680.285767,685.220764 680.227844,688.980164 
	C680.137939,694.811340 680.220398,700.645142 680.220276,706.477783 
	C680.220032,725.308960 680.196045,744.140137 680.219116,762.971313 
	C680.234741,775.694580 684.784424,780.563171 697.567078,780.702087 
	C716.229065,780.904907 734.895691,780.821350 753.558960,780.674683 
	C760.046631,780.623718 766.421265,779.839111 768.952515,772.270691 
	C771.238708,765.434692 768.371948,756.130676 762.427368,751.575745 
	C758.364868,748.462769 753.625549,747.028870 748.624329,746.150269 
	C737.133484,744.131287 725.670715,745.445251 714.245728,746.498352 
	C709.771301,746.910828 709.078064,745.297058 708.635803,741.367188 
	C707.670715,732.791016 710.598267,726.494019 717.076355,720.834961 
	C731.125244,708.562378 744.750244,695.801880 758.449646,683.133911 
	C761.353271,680.448914 763.478271,680.242188 766.290771,683.355591 
	C777.765930,696.058594 778.125183,692.218933 765.109253,703.243042 
	C757.105469,710.022156 748.675049,716.296814 740.456482,722.823486 
	C738.919739,724.043823 737.181519,725.097839 736.052795,727.574951 
	C741.187622,727.976257 746.063477,728.370422 750.941528,728.735474 
	C759.199768,729.353333 767.003967,731.611511 774.289673,735.496277 
	C789.517029,743.615662 795.954041,760.759399 790.580688,779.294556 
z"/>
<path fill="currentColor" opacity="1.000000" stroke="none" 
	d="
M687.011475,618.810303 
	C690.166260,618.807068 692.835205,618.877686 695.498413,618.784546 
	C703.364624,618.509277 707.276001,615.307739 708.196289,607.565796 
	C709.458069,596.951416 708.536743,586.260559 708.657776,575.604065 
	C708.743286,568.077454 708.672974,568.046875 716.256775,566.934082 
	C718.563110,566.595642 720.863342,566.203674 723.178040,565.936890 
	C729.749634,565.179199 730.121582,565.486694 730.146851,571.947449 
	C730.184692,581.612854 730.135742,591.278625 730.176453,600.944092 
	C730.229065,613.447693 735.073608,618.417603 747.647644,618.958313 
	C762.586182,619.600708 765.695007,616.714478 765.734192,601.821350 
	C765.791626,579.990723 765.879578,558.158508 765.653564,536.330017 
	C765.605591,531.692505 767.236511,529.601013 771.660217,529.046082 
	C775.122620,528.611694 778.562805,527.928833 781.974487,527.181396 
	C785.497620,526.409546 787.057007,527.867615 787.053040,531.282471 
	C787.022766,557.278137 787.516541,583.289795 786.746338,609.263855 
	C786.217102,627.110840 774.874817,636.968506 756.928223,637.514954 
	C745.665222,637.857910 734.917419,636.610657 726.112549,628.568481 
	C724.799927,627.369507 723.527649,627.305298 722.165161,628.585205 
	C712.999878,637.194702 701.454834,638.357605 689.896729,637.691284 
	C680.445679,637.146545 674.641663,638.393616 670.761902,648.963196 
	C665.272278,663.918335 650.932312,668.528625 636.338745,671.172058 
	C635.687256,671.290039 635.009644,671.260498 634.344788,671.308594 
	C624.753418,672.002258 621.388489,669.446899 619.072693,660.052856 
	C618.276428,656.822693 620.097290,656.314941 622.502014,656.066406 
	C626.804321,655.621704 631.140137,655.374207 635.399902,654.669556 
	C645.329895,653.027161 652.042358,646.535828 652.788086,637.952942 
	C650.202515,636.581970 647.324951,637.394775 644.587769,637.158508 
	C629.321228,635.841003 616.730408,630.195007 610.384827,615.197815 
	C604.216736,600.619995 605.730164,586.538208 615.784302,574.332886 
	C625.371216,562.694763 638.877075,560.706848 653.073975,562.075195 
	C659.250977,562.670532 665.054443,564.816284 670.855408,566.940308 
	C674.695068,568.346130 676.205994,570.827637 676.158081,574.907227 
	C676.015503,587.070557 676.108276,599.236938 676.155884,611.401917 
	C676.184875,618.812012 676.223633,618.811584 683.522156,618.804688 
	C684.522461,618.803772 685.522705,618.807678 687.011475,618.810303 
M654.771729,593.506165 
	C654.767090,589.686218 654.659485,585.862610 654.792664,582.047485 
	C654.887024,579.345703 653.553955,578.202393 651.127502,577.615662 
	C644.335449,575.973511 635.794495,578.754395 632.190186,584.685181 
	C627.216003,592.870056 626.531616,601.849670 630.778015,610.415344 
	C634.611511,618.148010 642.221802,619.146240 650.054077,619.067383 
	C653.396362,619.033630 654.890259,617.943298 654.804749,614.432556 
	C654.643066,607.793213 654.766541,601.146912 654.771729,593.506165 
z"/>
<path fill="currentColor" opacity="1.000000" stroke="none" 
	d="
M531.930908,866.680298 
	C536.494202,866.149963 538.213867,868.017517 538.087158,872.073792 
	C537.884460,878.563416 538.308167,885.108948 537.613708,891.538574 
	C536.495544,901.890564 531.758667,906.395142 521.358215,906.939087 
	C512.959290,907.378296 504.230408,908.501953 496.871674,902.591248 
	C495.759857,901.698181 494.662720,901.986267 493.653717,902.702393 
	C487.685120,906.938477 480.672424,906.738342 473.928680,906.916260 
	C460.771729,907.263245 447.600220,907.075195 434.434723,907.068481 
	C429.687500,907.066040 425.094604,906.254883 421.183807,903.365906 
	C419.475494,902.103943 418.182495,901.776062 416.350677,903.201843 
	C413.526855,905.399719 410.135468,906.529419 406.587311,906.644775 
	C394.633850,907.033203 382.670654,908.260925 370.786255,905.430603 
	C358.152130,902.421753 354.581726,887.101440 357.963623,878.993164 
	C358.888611,876.775574 360.186829,874.870178 362.447479,873.848206 
	C364.272034,873.023376 366.266632,872.015808 368.112610,873.394104 
	C369.774963,874.635254 368.520996,876.468384 368.456116,878.062073 
	C368.347900,880.720093 368.080200,883.416382 368.386871,886.037292 
	C369.071625,891.889282 372.745850,895.583496 378.608368,895.788330 
	C386.928619,896.079041 395.273560,896.061340 403.594604,895.780151 
	C408.572052,895.611877 410.774231,893.079163 410.823120,888.068909 
	C410.933716,876.737793 410.822266,865.404663 410.883026,854.072876 
	C410.911743,848.713318 414.903687,845.386230 420.261932,845.998108 
	C423.413727,846.358032 423.165649,848.706848 423.170654,850.859253 
	C423.197418,862.358276 423.181915,873.857239 423.191406,885.356262 
	C423.198730,894.216125 424.813141,895.918396 433.646515,895.945190 
	C448.311768,895.989685 462.977631,895.986938 477.642609,895.895081 
	C485.739532,895.844299 487.718781,893.778931 487.752014,885.851990 
	C487.771576,881.185791 487.853882,876.517700 487.758606,871.853577 
	C487.619629,865.050232 492.968658,867.241394 496.404419,866.653076 
	C500.286743,865.988464 500.079987,869.039124 500.103455,871.562622 
	C500.154602,877.061707 500.061401,882.563293 500.187744,888.060242 
	C500.314148,893.560730 502.323608,895.635925 507.704193,895.865479 
	C511.364258,896.021667 515.036072,895.877319 518.700500,895.960632 
	C523.630859,896.072754 525.597229,893.390686 525.614990,888.810486 
	C525.635681,883.477661 525.872620,878.130432 525.560242,872.816223 
	C525.294983,868.303650 526.829102,866.161499 531.930908,866.680298 
z"/>
<path fill="currentColor" opacity="1.000000" stroke="none" 
	d="
M564.522827,925.967651 
	C559.458435,926.784302 555.494141,926.420776 553.777710,920.946655 
	C552.904968,918.163147 553.465942,916.981262 556.386108,916.514832 
	C559.490112,916.018982 562.731079,916.055298 565.639221,914.582825 
	C568.719971,913.022827 571.201965,910.957764 571.907471,907.262817 
	C570.210938,905.511353 568.097473,906.404480 566.233276,906.362183 
	C554.940552,906.106079 547.090820,898.389404 546.802551,887.112122 
	C546.496460,875.140503 554.227173,865.761597 565.224060,864.847473 
	C570.599915,864.400696 575.846375,865.037781 580.976990,866.812866 
	C583.849548,867.806702 585.340637,869.482544 585.392273,872.644226 
	C585.490295,878.637512 585.994629,884.627625 585.981201,890.618225 
	C585.972717,894.373535 587.124756,896.048828 591.154480,895.945984 
	C599.814575,895.725037 608.485413,895.965881 617.149353,895.842285 
	C623.308533,895.754456 625.520508,893.462280 625.619507,887.265503 
	C625.704651,881.934875 625.776123,876.591614 625.509827,871.271179 
	C625.202454,865.132324 629.838013,867.235657 632.823914,866.614624 
	C636.193970,865.913635 637.912659,867.371277 637.926453,870.824951 
	C637.952332,877.323242 638.310974,883.840576 637.934448,890.315308 
	C637.390991,899.658752 631.895813,905.121460 622.535034,906.377808 
	C611.911072,907.803711 601.232056,906.902527 590.580261,907.010193 
	C587.309387,907.043335 585.578430,907.935730 584.252930,911.127380 
	C580.719055,919.636353 574.058105,924.463135 564.522827,925.967651 
M561.695129,892.782104 
	C563.106079,893.623413 564.426453,894.719360 565.944580,895.259644 
	C571.101746,897.095215 572.945618,895.736389 573.000183,890.279358 
	C573.038269,886.468079 572.920532,882.650391 573.108398,878.847229 
	C573.237183,876.239014 572.159058,875.269348 569.673828,875.201294 
	C566.120850,875.103943 562.916626,875.994019 561.064270,879.118713 
	C558.533203,883.388306 558.210449,887.873169 561.695129,892.782104 
z"/>
<path fill="currentColor" opacity="1.000000" stroke="none" 
	d="
M830.689209,531.966675 
	C830.735413,558.003296 830.858459,583.618713 830.892212,609.234375 
	C830.900269,615.380981 831.243713,621.532349 830.458496,627.679016 
	C829.843018,632.497681 827.317322,635.191589 822.569031,635.904175 
	C819.283936,636.397217 816.000183,636.899475 812.715393,637.394775 
	C810.115295,637.786804 809.011963,636.507385 808.981201,634.038940 
	C808.968689,633.040710 808.950684,632.042542 808.951477,631.044312 
	C808.976318,599.762329 808.994873,568.480408 809.036255,537.198425 
	C809.045227,530.407227 809.596252,529.825623 816.105225,528.919067 
	C819.232788,528.483521 822.394348,528.166809 825.461487,527.455383 
	C829.107178,526.609863 830.996643,527.573364 830.689209,531.966675 
z"/>
<path fill="currentColor" opacity="1.000000" stroke="none" 
	d="
M285.892303,727.787842 
	C285.642761,733.900940 287.292816,735.798645 292.729401,735.990173 
	C295.889435,736.101562 299.060486,735.965576 302.215485,736.140625 
	C306.472626,736.377014 307.150055,739.238037 306.981262,742.816650 
	C306.816559,746.308472 306.224030,749.088745 301.769867,749.059265 
	C291.611481,748.992065 281.451996,749.112488 271.293243,749.074890 
	C269.084717,749.066711 265.933777,749.812988 265.650665,746.570251 
	C265.362183,743.266052 264.763733,739.376770 268.679413,737.267517 
	C269.678497,736.729309 270.785980,736.392334 271.976105,735.909180 
	C271.969452,732.497986 270.775696,729.342834 271.606934,725.939880 
	C274.798340,712.875305 287.461548,707.651733 299.328522,710.424438 
	C304.231934,711.570007 303.230225,715.481750 303.035889,718.912048 
	C302.660187,725.542725 302.606567,725.463013 296.255463,724.349304 
	C292.434357,723.679260 288.514648,723.364014 285.892303,727.787842 
z"/>
<path fill="currentColor" opacity="1.000000" stroke="none" 
	d="
M379.431946,817.943604 
	C383.165894,810.603943 389.291046,808.118958 395.482330,811.108704 
	C400.936188,813.742493 403.545410,821.332520 400.923309,826.936218 
	C398.457092,832.206787 392.331879,834.742249 386.576965,832.874512 
	C380.953796,831.049622 378.216309,825.582092 379.431946,817.943604 
z"/>
<path fill="currentColor" opacity="1.000000" stroke="none" 
	d="
M413.971405,832.633423 
	C407.754791,828.808655 405.731750,824.483582 407.209442,818.822876 
	C408.794556,812.750732 413.949707,809.157043 419.821533,810.031006 
	C425.630676,810.895630 430.365936,817.086670 429.800354,823.077515 
	C429.244202,828.968628 424.424042,833.274353 418.282043,833.269714 
	C416.970337,833.268677 415.658905,832.958862 413.971405,832.633423 
z"/>
<path fill="currentColor" opacity="1.000000" stroke="none" 
	d="
M342.897797,537.155090 
	C345.455475,528.995178 356.910797,527.000061 362.156830,533.573181 
	C365.780731,538.113953 366.107758,543.474731 362.882019,547.799377 
	C359.747772,552.001404 354.051727,553.393677 349.012787,551.189514 
	C343.896118,548.951355 341.680725,544.085083 342.897797,537.155090 
z"/>
<path fill="currentColor" opacity="1.000000" stroke="none" 
	d="
M710.842529,648.922607 
	C716.533691,654.707825 717.106812,660.872070 712.669006,665.483521 
	C708.632507,669.678223 701.996094,670.386414 697.638855,667.087402 
	C693.013977,663.585938 691.986816,656.986694 695.259949,651.803955 
	C698.585449,646.538330 704.228088,645.387756 710.842529,648.922607 
z"/>
<path fill="currentColor" opacity="1.000000" stroke="none" 
	d="
M431.459259,661.996582 
	C429.863525,653.896179 433.015930,648.072327 439.255188,646.945984 
	C445.885773,645.749084 451.057648,649.443665 452.625031,656.456116 
	C453.625092,660.930603 451.701996,664.270386 448.316498,666.789368 
	C444.710938,669.472107 440.699799,669.941772 436.642151,667.690552 
	C434.430176,666.463379 432.625031,664.769836 431.459259,661.996582 
z"/>
<path fill="currentColor" opacity="1.000000" stroke="none" 
	d="
M422.517517,649.336670 
	C427.644806,655.451599 427.727264,661.649292 423.027405,666.043213 
	C418.754456,670.038025 412.311340,670.131287 408.055115,666.259949 
	C403.998199,662.569885 403.383667,655.693726 406.710938,651.218384 
	C410.333679,646.345520 416.221252,645.536804 422.517517,649.336670 
z"/>
<path fill="currentColor" opacity="1.000000" stroke="none" 
	d="
M732.535889,668.897156 
	C726.837524,669.209290 722.668823,667.294373 720.563171,662.236450 
	C718.751953,657.885742 719.506104,653.699280 722.751282,650.257996 
	C725.696655,647.134705 729.491516,645.968445 733.648499,647.201111 
	C737.970642,648.482666 740.649902,651.488892 741.343994,656.036255 
	C742.026733,660.509155 740.683228,664.247864 736.928101,666.888245 
	C735.733276,667.728394 734.269775,668.186279 732.535889,668.897156 
z"/>
<path fill="currentColor" opacity="1.000000" stroke="none" 
	d="
M194.057053,692.956543 
	C190.193665,686.973450 190.110062,683.064575 193.804016,678.540771 
	C196.623993,675.087341 200.201797,673.326660 204.798111,674.626709 
	C209.950638,676.084167 212.374619,679.775940 212.921860,684.825684 
	C213.429855,689.513184 211.115417,692.955688 207.185242,695.030334 
	C202.640701,697.429199 198.196320,696.799072 194.057053,692.956543 
z"/>
<path fill="currentColor" opacity="1.000000" stroke="none" 
	d="
M238.516754,681.972046 
	C239.966873,689.270691 237.025284,694.827271 231.383224,696.094849 
	C224.971848,697.535278 219.105362,694.068054 217.923462,688.139709 
	C216.626526,681.634399 220.247681,675.944519 226.577362,674.541870 
	C231.251587,673.506165 235.380447,675.972778 238.516754,681.972046 
z"/>
<path fill="currentColor" opacity="1.000000" stroke="none" 
	d="
M400.882446,873.036743 
	C402.108215,876.444092 401.298706,878.215210 397.768677,878.193481 
	C392.961426,878.163879 388.150848,878.302979 383.347321,878.168457 
	C379.809265,878.069336 378.766541,875.963562 380.859253,873.293762 
	C382.338379,871.406982 382.627502,869.561279 382.850098,867.399963 
	C383.524872,860.848816 390.363342,856.362976 396.674438,858.163391 
	C398.884918,858.793945 400.194305,860.080200 399.830048,862.466370 
	C399.469330,864.829224 398.547150,866.607239 395.549957,865.825500 
	C393.583282,865.312561 391.649414,865.657349 391.407776,868.040100 
	C391.151215,870.570007 393.273010,870.761230 395.137573,870.979065 
	C397.090393,871.207214 399.162903,871.062378 400.882446,873.036743 
z"/>
<path fill="currentColor" opacity="1.000000" stroke="none" 
	d="
M625.030762,912.607056 
	C628.909424,911.138245 631.934753,911.738525 634.008972,915.025269 
	C635.652832,917.630127 635.651184,920.359619 633.764709,922.892517 
	C631.848267,925.465698 629.171570,926.031616 626.242981,925.209351 
	C620.692200,923.650940 619.931519,917.390625 625.030762,912.607056 
z"/>
<path fill="currentColor" opacity="1.000000" stroke="none" 
	d="
M479.854675,919.690796 
	C479.512115,915.182800 481.343658,912.444580 485.424774,911.934265 
	C489.243347,911.456726 491.769043,913.696960 492.742096,917.247253 
	C493.677002,920.658447 491.783264,923.177795 488.854980,924.430176 
	C484.485046,926.299133 481.572327,924.284241 479.854675,919.690796 
z"/>
<path fill="currentColor" opacity="1.000000" stroke="none" 
	d="
M496.516052,913.369629 
	C499.923798,911.186951 502.810730,911.542969 505.301910,914.151917 
	C507.320190,916.265503 507.798492,918.731079 506.296326,921.393799 
	C504.391113,924.770996 500.454285,925.995544 497.455109,924.150391 
	C493.628357,921.796082 493.197113,918.140686 496.516052,913.369629 
z"/>
<path fill="currentColor" opacity="1.000000" stroke="none" 
	d="
M543.116455,851.199463 
	C544.822815,856.526550 543.702698,859.629028 539.957703,860.864441 
	C536.366028,862.049255 532.775269,860.218628 531.687805,856.614197 
	C530.816589,853.726562 531.677490,851.248291 534.073547,849.616760 
	C537.254150,847.450867 540.316101,847.935364 543.116455,851.199463 
z"/>
<path fill="currentColor" opacity="1.000000" stroke="none" 
	d="
M518.362000,850.581787 
	C521.701416,847.596741 524.914307,847.103088 527.817505,850.320068 
	C530.192017,852.951233 530.485474,856.128235 528.141296,858.931641 
	C525.989136,861.505371 523.026489,862.176514 520.098267,860.304688 
	C516.391846,857.935486 515.805725,854.645325 518.362000,850.581787 
z"/>
</svg>