<svg version="1.1" id="Layer_1" xmlns="http://www.w3.org/2000/svg" xmlns:xlink="http://www.w3.org/1999/xlink" x="0px" y="0px"
	 width="100%" viewBox="0 0 752 752" enable-background="new 0 0 752 752" xml:space="preserve">
<path fill="currentColor" opacity="1.000000" stroke="none" 
	d="
M342.393951,385.670288 
	C336.639343,381.322540 332.753082,375.920166 330.247192,369.651123 
	C328.870667,366.207397 327.036835,365.810181 323.731110,366.628448 
	C306.136688,370.983673 291.658722,365.373199 279.656891,352.336670 
	C278.678741,351.274200 277.410919,350.252197 278.004974,347.972626 
	C282.137573,347.972626 286.403534,348.176117 290.644165,347.934357 
	C303.221863,347.217316 313.503082,341.448242 322.565521,333.081177 
	C324.518524,331.278015 325.325806,329.474121 323.764526,326.972137 
	C317.026520,316.174255 313.051208,304.068634 307.692474,292.617188 
	C306.197723,289.422943 304.364258,288.203369 300.850983,288.257965 
	C289.190582,288.439148 277.523743,288.420288 265.863098,288.238922 
	C262.488159,288.186432 260.620819,289.352753 259.564941,292.521576 
	C257.828491,297.732727 255.714890,302.819122 254.009430,308.039520 
	C251.386688,316.067749 253.778152,320.490021 261.829407,322.711243 
	C264.342682,323.404633 266.838074,323.816772 266.302826,327.371307 
	C265.768127,330.921906 262.969116,330.073303 260.834717,330.087097 
	C250.338409,330.155060 239.840515,330.138153 229.344772,330.016113 
	C227.010635,329.988953 223.917587,330.792480 223.142654,327.365570 
	C222.361603,323.911591 225.314423,323.362061 227.604172,322.475433 
	C231.969528,320.785095 235.180786,317.872345 237.627625,313.865173 
	C242.958221,305.135193 246.526855,295.617676 250.286743,286.188446 
	C258.057648,266.700256 265.752960,247.181808 273.424042,227.654083 
	C276.657654,219.422516 274.427704,212.711884 267.230896,208.507263 
	C260.044617,204.308777 250.127747,205.634369 245.257309,211.444443 
	C240.631805,216.962387 241.373535,222.651001 247.499451,225.933456 
	C250.981567,227.799286 252.995377,230.381287 252.850113,234.193756 
	C252.692841,238.321121 250.464981,241.376312 246.721375,243.243744 
	C238.972290,247.109207 228.622223,243.108582 225.663895,234.823318 
	C221.865585,224.185577 224.825912,214.811935 231.936661,206.589371 
	C240.669189,196.491425 252.254135,192.305847 265.207672,191.800003 
	C286.625641,190.963623 302.475189,200.091553 312.265350,219.269485 
	C322.500854,239.319778 329.918121,260.608917 339.236725,281.064667 
	C346.136871,296.211548 352.352509,311.717163 363.151215,324.751099 
	C366.250183,328.491516 369.640320,331.885468 373.199127,335.161377 
	C375.913055,337.659576 378.121582,337.513214 380.916443,335.009033 
	C392.582153,324.556488 400.585876,311.647827 406.826965,297.479492 
	C407.541016,295.858429 407.607300,293.838715 409.389160,292.784393 
	C415.074005,298.635712 415.997894,303.132172 412.731598,309.957397 
	C405.113647,325.875916 394.334320,339.176086 380.066193,349.672974 
	C377.124146,351.837372 375.352142,350.587616 373.083923,348.866302 
	C355.314270,335.380707 343.504822,317.467377 334.763245,297.307739 
	C325.688934,276.380768 316.858826,255.347549 307.722046,234.448196 
	C303.993469,225.919525 300.284882,217.274902 293.003815,210.927216 
	C289.205841,207.616089 285.037384,205.039627 280.221619,204.245728 
	C296.953888,236.480591 308.901215,270.753632 324.065094,303.600464 
	C335.352936,328.051361 350.535858,348.922424 372.967102,364.245544 
	C376.350037,366.556396 378.618896,366.316803 381.789581,364.052002 
	C398.194733,352.333771 411.645996,338.062500 420.921631,320.035278 
	C421.604828,318.707520 422.421814,317.442474 423.258240,316.203400 
	C423.512573,315.826630 424.041199,315.635010 424.423859,315.372528 
	C431.346680,320.179016 431.543976,320.431091 429.567047,327.474274 
	C428.792053,330.235168 430.567261,331.572235 432.078369,332.963806 
	C442.090698,342.184082 453.591888,347.937592 467.531738,348.002625 
	C470.477417,348.016388 473.481384,347.332306 476.670898,348.400482 
	C476.400238,351.752106 474.047241,353.724579 471.939331,355.662811 
	C460.671997,366.023041 447.637085,370.620422 432.437683,366.773834 
	C428.360382,365.742004 426.126404,366.267548 424.321381,370.382629 
	C420.951050,378.066315 415.156372,383.834686 408.024109,388.165924 
	C403.330231,391.016388 398.474182,393.601532 393.671173,396.270294 
	C387.232391,399.847931 381.490692,404.253845 376.943848,411.492889 
	C368.614777,397.710327 353.821594,394.381287 342.393951,385.670288 
M357.476410,366.078522 
	C354.735168,363.654663 351.833313,361.386963 349.290039,358.770660 
	C345.382324,354.750793 343.101166,358.974762 340.330231,360.353577 
	C337.319031,361.851990 338.379517,364.235779 339.615814,366.291779 
	C343.540619,372.818695 348.637115,378.266571 355.379852,381.907013 
	C361.966309,385.462982 368.683655,388.783844 374.786652,393.153381 
	C376.384125,394.297150 377.609344,394.428284 379.192596,393.125366 
	C384.116180,389.073608 389.885925,386.455200 395.545135,383.631805 
	C403.117920,379.853729 409.637360,374.777985 413.894379,367.280334 
	C415.247528,364.897095 417.162903,362.279510 413.787537,359.846619 
	C410.729401,357.642303 408.066162,355.749603 404.289032,359.354431 
	C397.548950,365.787231 389.970276,371.232605 382.058990,376.202606 
	C378.775726,378.265198 375.872101,378.806122 372.483765,376.302002 
	C367.810272,372.848022 362.875458,369.747711 357.476410,366.078522 
M291.250305,255.180008 
	C288.274200,249.302277 286.500305,242.836594 282.085724,235.813248 
	C276.405792,250.303238 271.210205,263.557648 265.584625,277.909027 
	C277.108643,277.909027 287.210449,278.046234 297.304565,277.827423 
	C300.432556,277.759644 299.756592,275.276031 298.954834,273.341492 
	C296.534027,267.500214 294.035614,261.691101 291.250305,255.180008 
M416.948120,348.892273 
	C426.537079,355.859344 436.943390,359.028687 448.771393,355.901459 
	C441.744812,352.704559 435.018158,349.215332 429.208038,344.184143 
	C422.178070,338.096680 422.168213,338.084717 417.502014,345.998535 
	C417.097656,346.684357 416.952820,347.523224 416.948120,348.892273 
M315.382202,356.980988 
	C323.848999,356.533600 331.472351,353.876831 338.584930,348.440308 
	C337.303558,346.485474 336.185608,344.879364 335.170319,343.210785 
	C332.895782,339.472626 330.552002,339.252258 327.357391,342.411865 
	C324.907776,344.834625 321.874268,346.667328 319.098694,348.760162 
	C314.957916,351.882385 309.841339,353.252289 304.188110,356.573059 
	C308.556152,356.765137 311.502930,356.894684 315.382202,356.980988 
z"/>
<path fill="currentColor" opacity="1.000000" stroke="none" 
	d="
M232.091431,477.148102 
	C222.406189,472.020111 219.398895,463.524048 218.880402,453.711304 
	C218.704849,450.388763 218.718430,447.041840 218.892761,443.719025 
	C219.087921,439.999054 217.323822,438.958984 213.990677,439.619019 
	C211.710556,440.070496 209.332153,440.237061 207.163437,441.001312 
	C199.516312,443.696289 197.634995,451.180756 203.011932,457.136871 
	C204.349762,458.618805 205.829605,459.972290 207.239792,461.389191 
	C217.999130,472.199585 216.685562,487.208374 203.270065,494.623138 
	C187.892944,503.122040 171.588654,503.637177 156.099228,494.659851 
	C140.870804,485.833771 139.894775,464.103760 147.467850,452.112122 
	C150.202942,447.781250 154.069778,446.295563 159.431793,447.469482 
	C156.340378,453.530670 154.934570,459.880402 155.174789,466.633545 
	C155.590302,478.314819 161.837494,486.285767 173.327042,488.377838 
	C180.312881,489.649841 187.318298,489.135956 193.593002,485.154694 
	C199.904007,481.150360 200.625854,475.652588 195.492630,470.215637 
	C191.410019,465.891510 186.578323,462.255188 185.506210,455.715881 
	C184.079300,447.012543 187.471634,438.307800 195.063782,433.803131 
	C206.564041,426.979614 218.684860,428.340240 230.859436,431.681824 
	C233.156784,432.312378 233.277405,434.152771 233.282227,436.047058 
	C233.296188,441.544922 233.267426,447.043121 233.315979,452.540619 
	C233.412613,463.479401 237.803329,467.850494 248.843674,468.028992 
	C251.443085,468.071014 254.043762,468.035187 257.765228,468.035187 
	C252.238113,459.659973 251.302261,451.674011 253.970047,443.310211 
	C255.283722,439.191742 257.889465,436.014648 261.375641,433.520966 
	C270.468719,427.016571 284.620270,426.875885 292.838531,433.208832 
	C301.987549,440.258972 303.810669,451.683960 297.890625,467.625458 
	C304.501892,467.947021 310.922913,468.836884 317.138062,467.077759 
	C321.273407,465.907349 322.653381,462.081543 322.660431,457.910065 
	C322.671936,451.079346 322.849915,444.242798 322.620148,437.420105 
	C322.489166,433.531586 324.169556,432.156799 327.791595,431.751984 
	C337.346741,430.684052 337.332520,430.585419 337.321899,440.410461 
	C337.315979,445.908356 337.220001,451.408661 337.350220,456.903473 
	C337.504761,463.424561 340.935211,467.226837 347.427490,467.654419 
	C359.574524,468.454407 363.326965,469.024872 362.671204,454.239899 
	C362.508972,450.582245 362.770416,446.906708 362.638947,443.246521 
	C362.533173,440.302399 363.780273,438.887543 366.690277,438.869537 
	C367.023254,438.867462 367.356384,438.849335 367.688965,438.829773 
	C377.309692,438.264343 377.306702,438.264160 377.314026,447.878204 
	C377.316925,451.709991 377.212036,455.547180 377.377869,459.372314 
	C377.614410,464.829651 380.807587,468.020172 385.724426,467.987671 
	C390.315643,467.957306 392.701874,465.356964 392.881104,459.694092 
	C393.081360,453.368378 393.157288,447.031342 393.019501,440.705048 
	C392.933563,436.759583 393.858032,434.173035 398.459839,434.463776 
	C399.433472,434.525299 400.428345,434.149078 401.420410,434.035217 
	C407.244751,433.366699 408.029083,434.083618 408.027496,440.115936 
	C408.025909,446.113403 407.866089,452.114227 408.016876,458.107483 
	C408.181061,464.632507 411.588867,468.086273 417.360931,467.973145 
	C422.681305,467.868866 425.594147,464.701630 425.727295,458.308167 
	C425.897217,450.148285 425.738129,441.982056 425.811066,433.819397 
	C425.856018,428.789520 427.918823,427.794312 435.856110,427.599243 
	C440.471924,427.485748 440.317780,430.160950 440.429260,433.376160 
	C440.746735,442.532013 440.951691,451.680878 440.292786,460.827515 
	C439.733643,468.589447 437.197510,475.298065 429.448120,478.514221 
	C421.750732,481.708801 414.190430,481.469513 407.214752,476.326355 
	C406.156342,475.545929 405.100494,474.762085 403.780151,473.785004 
	C400.002167,477.121277 396.256775,480.257111 390.846497,480.467285 
	C385.613953,480.670593 380.919617,479.822876 376.966095,476.181183 
	C375.533447,474.861542 374.312164,474.211914 372.224792,475.676544 
	C361.168762,483.434296 344.697266,482.755585 334.242279,474.356354 
	C333.987610,474.151794 333.662659,474.034760 333.600006,474.000916 
	C316.970398,484.180786 299.407532,481.424744 281.896790,478.244904 
	C279.323700,477.777618 277.076233,477.755981 274.629242,478.373596 
	C263.512421,481.179352 252.230331,481.432648 240.908493,480.138031 
	C237.957092,479.800537 235.052750,478.864471 232.091431,477.148102 
M267.330719,453.231293 
	C267.297455,456.363495 268.495392,459.091888 270.226257,461.591949 
	C272.187836,464.425171 274.666107,466.988251 278.351074,466.421509 
	C281.853821,465.882812 284.127808,463.229675 285.375458,459.928070 
	C287.336761,454.738098 287.324402,449.451263 285.373108,444.300018 
	C283.087769,438.266907 276.375092,436.773743 271.482941,441.086365 
	C268.078735,444.087402 267.188080,448.066620 267.330719,453.231293 
z"/>
<path fill="currentColor" opacity="1.000000" stroke="none" 
	d="
M510.810120,244.329315 
	C507.742279,243.656921 505.466461,242.320999 503.643860,240.278717 
	C499.524933,235.663345 500.158112,229.947311 505.125061,226.519882 
	C512.569824,221.382629 512.311401,213.417053 504.233795,208.881256 
	C494.130829,203.208191 483.671539,204.090057 473.474060,208.634155 
	C462.518066,213.516281 455.657135,222.544037 451.106506,233.198593 
	C441.603333,255.448914 441.984924,277.364349 455.498718,298.000793 
	C471.590179,322.573547 503.077911,323.184662 520.607483,299.588470 
	C522.108521,297.567932 523.009705,294.670135 526.757874,296.569794 
	C531.448730,298.947296 531.966248,299.878204 529.328003,304.510315 
	C519.546204,321.684540 504.380615,330.525970 485.043518,332.123352 
	C471.428864,333.248016 458.017883,331.612091 445.721893,325.104248 
	C423.232208,313.201202 412.484131,293.778442 410.719818,268.940369 
	C410.311188,263.187439 410.659515,257.380737 410.659515,250.758560 
	C407.787262,252.793564 407.299561,255.342560 406.000885,257.310913 
	C396.575592,271.596313 392.424957,287.186951 394.277893,304.284821 
	C394.978729,310.751740 392.285217,315.964661 388.111877,320.580719 
	C387.025970,321.781799 386.092834,323.296082 384.209656,323.401001 
	C382.583862,322.669586 382.847473,321.195251 382.888153,319.926117 
	C383.277344,307.779358 382.344421,295.617126 383.547241,283.470215 
	C383.983521,279.064758 384.977325,274.879456 386.927521,271.026154 
	C397.458344,250.218719 408.071899,229.452393 418.789185,208.740311 
	C426.407349,194.017593 438.842499,185.533875 454.703430,181.628983 
	C459.540649,180.438095 464.534088,179.678726 468.885406,176.985855 
	C474.458618,173.536789 476.482452,167.414368 474.022888,161.351593 
	C472.496063,157.588013 469.648712,155.553650 465.622833,155.287262 
	C461.302704,155.001419 458.271240,157.559540 458.114929,161.482620 
	C457.965698,165.228195 459.467468,166.402786 464.968903,166.596725 
	C465.044952,169.871094 462.946075,171.444839 460.300873,172.033981 
	C456.563019,172.866455 453.386963,171.494385 451.158203,168.318756 
	C447.308838,162.834015 449.285919,153.912201 455.231506,149.701569 
	C465.711090,142.279999 480.671631,149.059830 483.253479,162.400589 
	C485.548584,174.259827 480.154602,183.616257 468.618835,187.209702 
	C461.480682,189.433258 454.077667,190.795837 447.370087,194.340790 
	C441.234039,197.583679 436.046631,201.832809 432.501740,208.179214 
	C433.609222,207.474762 434.725464,206.783554 435.821808,206.062164 
	C436.934967,205.329681 437.993011,204.507721 439.136017,203.827042 
	C462.605011,189.850998 486.845184,187.751144 511.486725,200.160736 
	C522.818054,205.867203 529.426086,215.444382 529.269043,228.647049 
	C529.144592,239.114075 521.799133,245.356293 510.810120,244.329315 
M425.183716,239.678436 
	C420.774841,251.701050 420.089569,264.062897 422.493073,276.516632 
	C425.630127,292.771637 433.589935,305.980743 448.182281,314.576172 
	C451.337646,316.434845 454.521637,318.408875 459.151642,318.470215 
	C442.116821,303.799347 434.352753,285.699951 433.553436,264.119476 
	C432.755524,242.577072 440.015137,224.199081 453.960449,208.035736 
	C439.651062,214.025772 430.954071,225.024490 425.183716,239.678436 
z"/>
<path fill="currentColor" opacity="1.000000" stroke="none" 
	d="
M307.159149,541.983643 
	C320.304230,539.454590 320.303375,539.454590 320.304321,552.306213 
	C320.304688,557.139404 320.200287,561.975769 320.338837,566.805054 
	C320.551025,574.200195 323.795807,577.773071 331.028687,578.878418 
	C346.215393,581.199341 348.651093,579.108276 348.654419,563.753418 
	C348.655182,560.253479 348.825409,556.744629 348.628845,553.256165 
	C348.428528,549.701294 350.032501,548.716187 353.366638,548.629822 
	C363.528381,548.366760 363.496796,548.257324 363.642761,558.329895 
	C363.705475,562.658386 363.769531,566.995789 364.096344,571.309204 
	C364.481384,576.390564 368.228943,579.729980 372.954895,579.533508 
	C377.653656,579.338257 380.536804,576.275574 380.667328,570.845825 
	C380.835480,563.849731 380.846771,556.845093 380.706757,549.848450 
	C380.638000,546.412659 381.646240,544.890015 385.402832,544.476868 
	C396.291595,543.279175 396.259155,543.083069 396.189789,553.811157 
	C396.157471,558.810425 396.067413,563.812927 396.200104,568.808716 
	C396.365540,575.037231 400.382324,579.426147 405.761292,579.525940 
	C411.413239,579.630737 415.300110,575.848145 415.539856,569.151123 
	C415.843689,560.662109 415.568695,552.153687 415.675690,543.655334 
	C415.700836,541.655640 414.653107,538.585632 417.482697,538.097046 
	C421.334900,537.431702 425.333588,535.849731 429.257446,537.368286 
	C430.789307,537.961182 430.386658,539.998352 430.380310,541.465332 
	C430.334808,551.950623 431.354736,562.427673 430.368439,572.924622 
	C429.654694,580.520691 427.234680,587.120850 419.765228,590.266785 
	C412.027222,593.525879 404.038513,593.910400 397.024872,588.485229 
	C393.575623,585.817200 391.484009,585.129944 387.975586,588.618713 
	C382.700928,593.863892 371.677063,593.632202 365.121368,588.992371 
	C363.648468,587.949829 362.545319,586.345886 360.647705,585.969421 
	C346.668762,595.344421 331.017578,595.089478 316.061493,585.266663 
	C299.542480,595.370483 288.677094,595.294006 271.338989,584.756409 
	C264.172668,591.775757 255.050964,592.569824 245.500900,592.373779 
	C233.672592,592.130981 221.833069,592.456848 210.003448,592.249329 
	C195.450150,591.994019 185.776947,584.655945 183.104477,572.246033 
	C180.815323,561.616089 184.778656,553.669495 193.937820,550.528503 
	C195.497452,549.993652 197.054337,549.255981 198.664658,550.361084 
	C199.717682,552.048523 198.882339,553.619263 198.421967,555.170959 
	C197.365250,558.732361 197.116882,562.362000 197.279099,566.048889 
	C197.590195,573.119873 201.300873,577.480042 208.315414,578.790222 
	C216.747360,580.365173 225.273773,579.345154 233.754929,579.571289 
	C238.584717,579.700073 243.424835,579.722229 248.253082,579.567505 
	C257.419556,579.273743 260.945831,575.779785 261.035370,566.696289 
	C261.153625,554.697754 261.055023,542.697083 261.048889,530.697327 
	C261.047852,528.697388 261.031921,526.697327 261.041809,524.697449 
	C261.088074,515.351990 261.145172,515.578796 270.436371,513.335266 
	C274.997253,512.233887 276.445007,513.370544 276.392151,517.991455 
	C276.220612,532.989380 276.312256,547.990234 276.313293,562.989990 
	C276.313416,564.822571 276.245331,566.669434 276.438324,568.485229 
	C277.118988,574.889648 280.076080,577.907288 286.476593,578.982422 
	C289.115112,579.425659 291.745758,579.797180 294.426117,579.415649 
	C302.182770,578.311523 304.873383,575.352356 304.962616,567.559937 
	C305.037018,561.060974 304.927368,554.560059 304.985992,548.060730 
	C305.005035,545.951416 304.624939,543.641235 307.159149,541.983643 
z"/>
<path fill="currentColor" opacity="1.000000" stroke="none" 
	d="
M349.581055,169.736160 
	C340.498901,170.613312 332.064667,172.474594 323.725616,174.801834 
	C321.490021,175.425735 319.521454,175.934570 318.597534,172.867996 
	C313.293823,155.264908 304.977692,138.901031 297.636597,122.135719 
	C297.181610,121.096573 296.452423,120.083511 297.035522,118.416092 
	C301.084442,118.813202 304.172943,121.325874 307.046600,123.793304 
	C309.629089,126.010757 312.090820,126.989891 315.567352,126.695663 
	C321.697235,126.176849 322.752228,127.918427 320.154785,133.332016 
	C317.665070,138.520920 317.411346,143.631653 320.881927,148.455383 
	C325.203827,154.462311 333.454498,153.855865 336.984558,147.373047 
	C340.735718,140.484116 340.425018,137.522888 335.183777,131.417114 
	C334.262024,130.343307 333.715820,129.261978 333.835480,127.820488 
	C334.021790,125.576790 336.606598,119.771446 338.575165,117.483482 
	C341.717438,119.138863 343.817047,121.968704 346.189636,124.484451 
	C347.749664,126.138611 346.899933,127.826653 346.295990,129.595047 
	C343.779510,136.963425 351.787354,147.655594 359.634460,147.481827 
	C365.736084,147.346710 370.139221,140.494141 368.300659,133.849060 
	C367.139496,129.652237 364.637543,126.273438 360.834869,124.230919 
	C357.051361,122.198685 357.409485,119.202995 360.111328,117.691658 
	C367.242645,113.702515 368.386932,106.142487 371.977631,100.033920 
	C373.304901,97.775932 374.220184,95.187065 377.161011,92.891876 
	C380.520020,97.717110 383.208771,102.781746 384.924286,108.207916 
	C385.871124,111.202789 387.239197,113.154266 390.020264,114.432060 
	C391.344574,115.040527 392.579834,116.034134 393.585632,117.106346 
	C396.041168,119.724022 397.344604,121.974968 392.768616,124.288658 
	C387.459137,126.973244 384.869019,131.731293 385.240051,137.863419 
	C385.644989,144.556488 390.951141,148.380981 397.370544,146.585327 
	C404.858826,144.490692 409.382263,136.280243 407.058350,128.850128 
	C406.577484,127.312737 406.383087,125.915009 407.453369,124.615913 
	C409.648621,121.951324 411.708862,119.133911 414.771759,117.385284 
	C420.157654,123.060059 420.535858,128.097473 416.149139,133.767715 
	C413.367584,137.363113 413.770996,143.794876 417.186340,148.190521 
	C419.963501,151.764771 423.426086,153.694214 428.080688,152.008652 
	C432.836182,150.286545 436.189301,144.558716 435.555756,139.113052 
	C435.224365,136.264633 434.124451,133.669861 432.611664,131.223587 
	C431.007202,128.629059 432.238220,126.262680 434.787018,126.822578 
	C442.596405,128.538071 447.149475,123.203300 452.606110,119.662697 
	C453.715088,118.943123 454.908173,118.291046 456.430084,118.555351 
	C457.754639,120.465714 456.254822,122.026207 455.551605,123.547081 
	C448.143799,139.568527 440.798889,155.617065 435.492065,172.490799 
	C434.519806,175.582275 432.745056,175.805710 430.163544,175.020996 
	C410.010803,168.895065 389.310059,167.635941 368.427673,168.273163 
	C362.283447,168.460648 356.155060,169.167389 349.581055,169.736160 
z"/>
<path fill="currentColor" opacity="1.000000" stroke="none" 
	d="
M486.800964,574.597717 
	C488.816071,572.022583 488.742493,569.341675 488.739807,566.664490 
	C488.724670,551.504883 488.851135,536.343445 488.633667,521.186829 
	C488.572601,516.931885 489.744080,515.031250 494.211456,514.249817 
	C504.223267,512.498474 504.164642,512.221436 504.159607,522.151794 
	C504.151917,537.311401 504.133148,552.471008 504.172424,567.630554 
	C504.192383,575.325378 506.498169,578.380737 514.256287,579.062317 
	C528.037598,580.273132 541.881836,579.610535 555.695801,579.355957 
	C559.723877,579.281738 563.784302,578.400818 565.404053,573.763245 
	C567.047058,569.059448 565.417786,562.825134 561.629456,559.548767 
	C558.341187,556.704834 554.353333,555.634094 550.125122,555.292480 
	C542.796814,554.700317 535.463501,555.033752 528.155273,555.516174 
	C524.870422,555.733093 523.810791,554.748291 523.624023,551.456116 
	C523.328674,546.250427 524.735168,542.157288 528.758240,538.643066 
	C538.665222,529.989075 548.422058,521.159607 558.094910,512.243958 
	C560.529846,509.999634 562.204773,510.067719 564.239990,512.536072 
	C566.022827,514.698425 568.043640,516.664490 570.358887,519.145447 
	C561.663696,527.833191 551.432312,534.102417 542.308289,542.350891 
	C546.197876,543.740112 549.805908,543.546631 553.377991,543.681946 
	C567.804626,544.228394 578.836365,552.370789 581.309570,564.263489 
	C584.550110,579.846130 575.626770,591.460754 559.048096,592.112732 
	C544.577148,592.681885 530.064697,592.408691 515.575439,592.189880 
	C510.180023,592.108398 504.992065,590.424927 500.913300,586.654236 
	C498.522003,584.443542 496.900665,584.290222 494.203979,586.457703 
	C486.313538,592.799683 476.749603,593.453186 467.171875,593.088928 
	C460.194916,592.823608 453.241028,591.891052 446.639954,589.307068 
	C443.233673,587.973572 440.962952,580.399658 443.179321,577.515991 
	C444.306335,576.049561 445.936188,576.605957 447.359070,576.858948 
	C451.119812,577.528015 454.875519,578.245911 458.601166,579.086548 
	C462.681366,580.007141 464.049866,579.111877 463.009979,574.542358 
	C460.275909,562.528137 457.335297,550.571716 453.417145,538.899902 
	C451.950562,534.531067 453.053162,532.681091 457.381989,532.164062 
	C458.529755,532.026917 459.690948,531.741760 460.768494,531.324524 
	C464.563477,529.855103 466.213165,531.622375 467.272522,535.101685 
	C471.004120,547.357605 474.197052,559.745117 476.962677,572.252258 
	C477.462585,574.513000 476.595947,577.870972 479.834259,578.519226 
	C482.684235,579.089783 484.737793,576.909912 486.800964,574.597717 
z"/>
<path fill="currentColor" opacity="1.000000" stroke="none" 
	d="
M549.823853,480.395386 
	C543.318420,479.619965 542.207092,479.149353 534.140076,473.826996 
	C525.811707,481.981812 515.066650,480.958252 504.613373,480.722168 
	C501.530579,480.652527 500.184174,481.469757 499.270325,484.356903 
	C494.477570,499.499573 480.696930,503.481232 468.754669,504.109283 
	C464.816986,504.316406 462.309296,500.459473 461.710449,494.121521 
	C468.576660,492.325928 476.614197,493.880585 482.048401,487.644409 
	C483.685211,485.766083 484.909027,483.648560 485.227051,480.697601 
	C481.453857,480.371094 477.976379,480.361816 474.616577,479.728485 
	C460.856232,477.134644 452.130280,466.386841 453.007782,453.388000 
	C453.984009,438.925934 463.540527,429.620056 478.223297,428.718872 
	C484.874329,428.310638 491.074585,430.029480 497.223572,432.261383 
	C500.176544,433.333191 501.273071,435.291992 501.235138,438.360077 
	C501.136292,446.358459 501.433533,454.367126 501.137543,462.355621 
	C500.970276,466.869446 502.745819,468.420837 506.977478,467.956512 
	C508.295654,467.811859 509.641663,467.919250 510.974945,467.914856 
	C521.506287,467.879974 523.694214,465.647675 523.711548,454.893127 
	C523.720642,449.226654 523.933167,443.548676 523.637878,437.897644 
	C523.435181,434.017395 525.152100,432.644989 528.664978,432.006775 
	C538.357239,430.245972 538.366150,430.167694 538.376892,440.046387 
	C538.382507,445.212860 538.259583,450.382690 538.405029,455.545105 
	C538.697510,465.923401 550.502563,472.333740 559.533569,467.104034 
	C562.821228,465.200256 562.943726,461.935425 562.963806,458.774933 
	C563.045288,445.942841 563.006775,433.109955 563.011963,420.277374 
	C563.012573,418.777405 563.009033,417.277466 563.009338,415.777496 
	C563.011169,407.184479 566.324402,404.236725 575.095215,404.819519 
	C578.015381,405.013580 578.088684,407.029388 578.111328,409.046600 
	C578.187988,415.878906 578.182800,422.712280 578.191528,429.545227 
	C578.202576,438.211609 578.224731,446.878082 578.192383,455.544342 
	C578.120544,474.811127 569.588745,482.395569 549.823853,480.395386 
M486.007355,452.516663 
	C486.005066,449.361298 486.039795,446.205322 485.987244,443.050781 
	C485.952728,440.980347 485.069366,439.577087 482.791199,439.361542 
	C478.253113,438.932190 474.110626,439.674561 471.192474,443.556305 
	C466.976410,449.164520 467.074097,455.411438 469.484222,461.525360 
	C471.711090,467.174530 477.089691,467.796082 482.350159,468.341187 
	C485.071075,468.623169 485.953247,467.428345 485.944092,464.967834 
	C485.929871,461.147980 485.982361,457.327911 486.007355,452.516663 
z"/>
<path fill="currentColor" opacity="1.000000" stroke="none" 
	d="
M374.551239,270.543030 
	C372.036835,277.217499 371.065308,283.736237 371.156769,290.479980 
	C371.283295,299.805511 371.213989,309.134003 371.182556,318.461090 
	C371.176636,320.218414 371.539734,322.108673 369.691437,324.234772 
	C364.899139,319.947754 360.943939,315.578247 360.671082,308.887085 
	C360.325500,300.412903 361.252136,291.913727 360.001221,283.446472 
	C359.606201,280.772522 359.092255,278.202637 357.864166,275.812439 
	C347.518250,255.676559 337.182159,235.535553 326.786041,215.425598 
	C319.594452,201.514359 307.875305,193.409454 293.020294,189.415680 
	C288.844421,188.293015 284.604431,187.357819 280.722839,185.360214 
	C272.024658,180.883804 267.883759,170.931931 270.620331,161.148956 
	C273.257690,151.720596 280.877441,146.075638 290.155579,146.676575 
	C299.418579,147.276535 305.823700,155.247452 304.175354,164.239868 
	C303.326477,168.870758 300.504852,171.702515 295.777008,172.130508 
	C292.052124,172.467682 289.380615,170.926727 288.478485,166.490662 
	C291.688354,166.461502 295.180603,166.908112 295.695007,162.574661 
	C296.017792,159.855209 295.244293,157.504608 292.771393,156.188553 
	C289.340088,154.362457 286.021423,154.959747 282.978821,157.291275 
	C282.715302,157.493195 282.469757,157.721024 282.230957,157.952377 
	C277.027557,162.993515 277.643372,172.096283 283.502014,176.383636 
	C286.813416,178.806900 290.712250,179.771713 294.620544,180.620407 
	C313.753174,184.775101 328.424438,194.709839 337.386688,212.608597 
	C345.213165,228.239090 353.485321,243.646469 361.571594,259.146667 
	C362.331024,260.602448 363.169495,262.016998 364.333435,264.098389 
	C368.535645,256.004364 372.485596,248.424683 376.409698,240.831619 
	C382.830750,228.406937 389.114960,215.909393 395.709534,203.577682 
	C398.116241,199.077240 399.391754,195.117889 394.920135,191.198135 
	C394.119629,190.496399 393.342896,189.433533 393.880096,187.464264 
	C401.429596,187.417801 408.886383,188.735535 416.586060,190.494003 
	C399.692047,215.974197 387.222229,243.090851 374.551239,270.543030 
z"/>
<path fill="currentColor" opacity="1.000000" stroke="none" 
	d="
M325.310913,647.862610 
	C325.327484,658.358215 325.697388,658.735291 335.750977,658.748413 
	C344.748169,658.760193 353.745819,658.806458 362.742401,658.731750 
	C368.761230,658.681824 370.361206,657.039978 370.568573,650.978699 
	C370.653961,648.482178 370.819641,645.956116 370.548889,643.487305 
	C370.130432,639.671631 371.822205,638.557312 375.388702,638.488831 
	C379.367371,638.412537 379.053345,640.989929 379.079956,643.507507 
	C379.115173,646.839111 379.072662,650.171509 379.091064,653.503479 
	C379.110229,656.972107 380.875702,658.718323 384.346405,658.742920 
	C384.846039,658.746460 385.345490,658.774719 385.845062,658.789917 
	C396.078552,659.102234 396.676758,658.529724 396.668121,648.453308 
	C396.666412,646.453979 396.812103,644.443848 396.653168,642.457642 
	C396.362640,638.826294 398.773773,638.440247 401.418549,638.255676 
	C404.385895,638.048523 405.183502,639.914795 405.131317,642.366882 
	C405.018250,647.676331 405.783325,653.032715 404.289551,658.274048 
	C403.184265,662.152161 400.790985,664.520630 396.749451,665.350220 
	C390.380127,666.657593 384.178101,666.307129 378.146729,663.860535 
	C376.908600,663.358337 375.812439,662.519348 374.414032,663.302002 
	C368.577667,666.568481 362.160858,665.967834 355.861633,666.018738 
	C348.364716,666.079407 340.685455,667.020874 333.418976,665.718506 
	C325.800690,664.353027 318.739716,664.313599 311.130646,665.721252 
	C304.723969,666.906494 297.869934,666.542297 291.236145,665.380798 
	C282.641937,663.876099 277.487762,655.872742 280.031586,647.549622 
	C281.077179,644.128479 283.351898,642.305481 287.324005,643.060242 
	C287.324005,645.753601 287.258026,648.355774 287.338623,650.953369 
	C287.478546,655.463684 289.882202,658.296692 294.322205,658.571167 
	C299.965698,658.920044 305.648071,658.809143 311.307892,658.666687 
	C315.216553,658.568298 316.819733,656.107300 316.816925,652.374329 
	C316.811432,645.043396 316.809448,637.712341 316.866974,630.381714 
	C316.880920,628.606812 316.471741,626.569214 318.498413,625.482483 
	C320.132690,624.606140 321.998505,623.977295 323.762604,624.558350 
	C325.816895,625.235046 325.254791,627.311890 325.271515,628.891052 
	C325.336731,635.055176 325.305542,641.220276 325.310913,647.862610 
z"/>
<path fill="currentColor" opacity="1.000000" stroke="none" 
	d="
M411.738647,654.546265 
	C411.522339,640.199524 422.503326,633.127930 435.415649,638.759644 
	C437.644318,639.731750 438.240570,641.351013 438.245239,643.496948 
	C438.253235,647.156311 438.372131,650.818420 438.264557,654.474060 
	C438.181030,657.312500 439.065674,658.838684 442.207520,658.778687 
	C448.193176,658.664246 454.182831,658.763733 460.170807,658.759277 
	C464.062714,658.756348 465.961731,656.894165 465.851593,652.899658 
	C465.755341,649.410522 465.956818,645.914001 465.910431,642.422363 
	C465.863892,638.922791 468.215668,638.410583 470.876831,638.261658 
	C473.934753,638.090515 474.348511,640.066101 474.315277,642.497864 
	C474.263000,646.322754 474.382385,650.150513 474.307861,653.974609 
	C474.168213,661.139404 470.986267,664.881836 463.890717,665.387451 
	C456.769440,665.894958 449.606842,665.842346 442.461334,665.980530 
	C440.028107,666.027588 438.042755,666.232971 436.963593,669.096130 
	C434.591705,675.388977 429.262512,677.966248 423.062836,679.043762 
	C418.470306,679.841919 417.222534,678.756348 416.324585,673.465881 
	C420.607758,671.610779 426.928284,672.925781 428.701355,665.840759 
	C420.681793,665.632446 413.757996,663.931213 411.738647,654.546265 
M425.052307,644.381958 
	C420.545044,646.601685 418.858856,650.050903 420.341949,654.324158 
	C421.490173,657.632629 424.161316,658.894531 427.394470,658.567871 
	C430.713074,658.232544 429.494324,655.375305 429.674530,653.441650 
	C429.842926,651.633850 429.639282,649.794739 429.723541,647.975159 
	C429.852783,645.184082 428.588165,643.978577 425.052307,644.381958 
z"/>
<path fill="currentColor" opacity="1.000000" stroke="none" 
	d="
M608.314453,442.000061 
	C608.312439,452.164154 608.375305,461.828857 608.283569,471.492096 
	C608.225037,477.652496 601.163086,482.433594 595.369629,480.453186 
	C593.657227,479.867889 593.709839,478.528442 593.709045,477.227295 
	C593.694580,454.900085 593.716736,432.572876 593.697693,410.245667 
	C593.695862,408.085846 594.644531,406.997864 596.700012,406.314545 
	C606.522156,403.049072 608.341125,404.292755 608.328247,414.507233 
	C608.316895,423.504852 608.318115,432.502441 608.314453,442.000061 
z"/>
<path fill="currentColor" opacity="1.000000" stroke="none" 
	d="
M321.562775,183.537415 
	C320.462738,179.604462 323.292511,179.403183 325.423553,178.763702 
	C336.641510,175.397369 348.208405,173.987610 359.812744,172.923233 
	C382.565460,170.836273 404.999084,172.865540 427.122620,178.499847 
	C428.886536,178.949066 430.885773,179.152863 432.020264,180.696396 
	C433.233368,182.346924 432.523621,184.291489 431.789581,185.926346 
	C430.967133,187.758179 429.307068,187.073044 427.857452,186.706161 
	C393.966370,178.128311 360.056213,178.541901 326.161102,186.619324 
	C323.435974,187.268738 321.959320,186.807266 321.562775,183.537415 
z"/>
<path fill="currentColor" opacity="1.000000" stroke="none" 
	d="
M358.391205,202.602768 
	C362.993683,211.494217 367.437805,220.044037 371.887817,228.590775 
	C375.524628,235.575607 375.065857,238.185379 368.673218,244.667908 
	C357.468262,227.268723 351.965210,206.595490 336.171173,191.111038 
	C344.545807,188.270737 352.302063,187.537979 361.040924,187.255173 
	C359.182007,192.667007 353.372223,196.716766 358.391205,202.602768 
z"/>
<path fill="currentColor" opacity="1.000000" stroke="none" 
	d="
M230.234772,544.087036 
	C231.071701,549.544617 235.073837,548.453369 238.433121,548.706665 
	C240.608566,548.870667 243.281204,547.936157 244.203522,551.174561 
	C245.315491,555.078918 243.855591,557.194885 239.693665,557.249146 
	C233.205215,557.333801 226.714615,557.286438 220.225235,557.244995 
	C218.595749,557.234619 216.604828,557.474121 216.051224,555.398315 
	C215.472992,553.230042 215.589005,550.863098 217.884689,549.703430 
	C220.096771,548.585999 220.152771,547.132812 220.114655,544.888306 
	C219.907394,532.684570 230.420532,528.725220 239.365250,531.245422 
	C244.377213,532.657532 241.309875,536.950195 240.989319,540.300964 
	C237.217514,541.131226 232.146957,537.763184 230.234772,544.087036 
z"/>
<path fill="currentColor" opacity="1.000000" stroke="none" 
	d="
M318.029114,614.396362 
	C314.575256,611.938049 313.220062,608.957703 314.167938,605.155823 
	C314.923065,602.127136 316.969452,600.322632 320.002594,599.794434 
	C323.299103,599.220398 326.370331,599.779541 328.330719,602.783447 
	C330.024017,605.378052 330.727539,608.249939 329.111664,611.200745 
	C327.421539,614.287231 324.700989,615.540283 321.264069,615.245300 
	C320.297302,615.162354 319.354187,614.803772 318.029114,614.396362 
z"/>
<path fill="currentColor" opacity="1.000000" stroke="none" 
	d="
M294.861267,606.217529 
	C296.189087,600.934998 299.566071,599.219055 304.292572,599.679321 
	C308.002289,600.040527 309.811005,602.389893 310.295135,605.887085 
	C311.031982,611.209839 308.571289,614.770752 303.901672,615.252380 
	C298.585602,615.800781 295.568146,612.938293 294.861267,606.217529 
z"/>
<path fill="currentColor" opacity="1.000000" stroke="none" 
	d="
M269.523346,414.730896 
	C270.192139,408.854370 272.433746,406.600220 277.150909,406.656952 
	C281.441162,406.708588 284.793823,409.748596 284.927582,414.041412 
	C285.058197,418.232605 282.876587,420.906982 278.797516,421.864502 
	C274.605591,422.848572 271.133057,420.251984 269.523346,414.730896 
z"/>
<path fill="currentColor" opacity="1.000000" stroke="none" 
	d="
M527.144653,490.224182 
	C529.330017,496.974030 527.815369,501.044769 522.844116,502.031708 
	C518.905823,502.813599 515.530579,501.637909 513.818970,497.732391 
	C512.231262,494.109558 513.145874,490.709717 516.326904,488.506683 
	C520.045044,485.931671 523.799805,486.273865 527.144653,490.224182 
z"/>
<path fill="currentColor" opacity="1.000000" stroke="none" 
	d="
M340.312317,487.492126 
	C345.148224,490.076965 346.871063,493.780670 345.347168,497.619019 
	C343.884827,501.302429 339.820129,503.124695 335.938782,501.836884 
	C332.023071,500.537659 329.808838,496.861206 330.877930,492.843140 
	C332.100128,488.249756 335.315094,486.546631 340.312317,487.492126 
z"/>
<path fill="currentColor" opacity="1.000000" stroke="none" 
	d="
M546.328979,494.923218 
	C545.909119,499.637543 543.466614,501.991577 539.246399,502.190643 
	C535.806396,502.352844 533.028442,500.851501 531.887939,497.445099 
	C530.828064,494.279419 531.055054,491.116119 533.871704,488.829987 
	C536.721375,486.517059 539.905884,486.201630 543.082703,488.211090 
	C545.346375,489.642975 546.468323,491.777161 546.328979,494.923218 
z"/>
<path fill="currentColor" opacity="1.000000" stroke="none" 
	d="
M327.360718,494.934143 
	C326.348969,500.204437 323.482117,502.626434 319.295288,502.175262 
	C315.275330,501.742065 312.561707,498.453583 312.708191,494.192749 
	C312.850006,490.068787 315.942810,486.978699 320.026031,486.881378 
	C324.288635,486.779785 326.656952,489.242188 327.360718,494.934143 
z"/>
<path fill="currentColor" opacity="1.000000" stroke="none" 
	d="
M182.764740,514.757629 
	C183.281586,508.902985 186.194229,505.720001 190.496460,505.849396 
	C194.380478,505.966217 197.346909,509.125336 197.614639,513.428162 
	C197.856018,517.307556 196.007324,519.775391 192.378052,520.871643 
	C188.453918,522.056946 184.967834,519.922119 182.764740,514.757629 
z"/>
<path fill="currentColor" opacity="1.000000" stroke="none" 
	d="
M164.866119,516.094727 
	C164.447617,508.944153 168.337112,504.760284 173.780670,506.129181 
	C177.457550,507.053833 179.182159,509.534302 179.364365,513.321167 
	C179.548370,517.145569 178.088913,519.789246 174.338776,520.782410 
	C170.108612,521.902710 166.889343,520.503357 164.866119,516.094727 
z"/>
<path fill="currentColor" opacity="1.000000" stroke="none" 
	d="
M296.084045,642.866638 
	C297.726196,641.331543 297.441162,639.577393 297.779175,637.982788 
	C298.623657,633.998535 303.408325,631.467712 307.086365,632.925110 
	C308.489166,633.481018 309.248657,634.454102 309.031860,635.982422 
	C308.848145,637.277344 308.173004,638.103882 306.698822,637.951294 
	C305.344543,637.810913 303.725220,637.685913 303.601715,639.471375 
	C303.456421,641.572205 305.319611,641.537659 306.788879,641.670227 
	C308.563599,641.830383 310.318207,642.183777 309.980743,644.463074 
	C309.686493,646.450562 307.836395,646.211060 306.389435,646.242676 
	C303.741333,646.300415 301.090485,646.284668 298.441681,646.243103 
	C296.448822,646.211792 295.214600,645.460266 296.084045,642.866638 
z"/>
<path fill="currentColor" opacity="1.000000" stroke="none" 
	d="
M469.379730,678.354004 
	C466.629120,678.888611 464.774506,678.172485 463.752411,675.843262 
	C463.020325,674.174866 463.286011,672.577454 464.404419,671.179077 
	C465.724060,669.528992 467.549316,669.479736 469.398651,669.906677 
	C470.996033,670.275391 471.988800,671.393982 472.283325,672.984436 
	C472.717682,675.329895 472.161133,677.272095 469.379730,678.354004 
z"/>
<path fill="currentColor" opacity="1.000000" stroke="none" 
	d="
M364.980713,672.457764 
	C366.511475,669.341919 368.708160,668.879578 371.282043,670.186401 
	C373.374359,671.248657 373.669861,673.284241 373.193085,675.304382 
	C372.656006,677.580017 370.860352,678.496216 368.681702,678.137756 
	C365.789551,677.661987 364.511810,675.775208 364.980713,672.457764 
z"/>
<path fill="currentColor" opacity="1.000000" stroke="none" 
	d="
M400.731506,629.974670 
	C401.456085,626.598633 403.398254,625.328674 406.274109,626.076233 
	C408.441345,626.639526 409.423676,628.387817 409.231354,630.672546 
	C409.057098,632.742249 408.041656,634.139404 405.891571,634.354675 
	C402.976959,634.646545 401.060638,633.499512 400.731506,629.974670 
z"/>
<path fill="currentColor" opacity="1.000000" stroke="none" 
	d="
M375.763062,671.094177 
	C379.063660,668.794617 381.698242,668.937866 383.117493,672.658142 
	C383.800995,674.449768 383.259766,676.289795 381.505585,677.460815 
	C379.984222,678.476318 378.343506,678.541504 376.861908,677.483276 
	C374.646240,675.900818 374.228485,673.808044 375.763062,671.094177 
z"/>
<path fill="currentColor" opacity="1.000000" stroke="none" 
	d="
M390.842285,628.654480 
	C392.617676,625.918884 394.752686,625.026672 397.293488,626.756897 
	C399.319855,628.136841 399.866211,630.201172 398.608551,632.399353 
	C397.440674,634.440735 395.429718,634.701172 393.398834,634.106140 
	C390.870300,633.365356 390.280853,631.410950 390.842285,628.654480 
z"/>
</svg>