<svg version="1.1" id="Layer_1" xmlns="http://www.w3.org/2000/svg" xmlns:xlink="http://www.w3.org/1999/xlink" x="0px" y="0px"
	 width="100%" viewBox="0 0 1024 880" enable-background="new 0 0 1024 880" xml:space="preserve">
<path fill="currentColor" opacity="1.000000" stroke="none" 
	d="
M198.554657,513.608887 
	C215.684845,470.536224 232.484985,427.742737 249.774887,385.148041 
	C254.300949,373.997803 256.941193,363.519806 250.499283,352.247498 
	C243.716125,340.378113 233.809082,332.881317 220.640198,329.870117 
	C203.851074,326.031067 188.426880,328.246124 176.195251,341.662415 
	C170.615189,347.782898 167.646378,354.969696 167.995621,363.513977 
	C168.268448,370.188629 171.223557,374.898804 176.861389,378.119568 
	C178.594513,379.109680 180.371170,380.068787 182.224258,380.796753 
	C201.088379,388.207825 197.868958,411.036133 186.263641,420.096588 
	C166.863297,435.242767 135.235428,426.392944 126.721985,402.938538 
	C117.771584,378.280273 123.975876,355.820587 139.025650,335.688660 
	C157.408524,311.097992 183.201767,299.175385 213.052567,294.653320 
	C234.548737,291.396912 255.511169,293.040436 276.223511,299.427277 
	C298.608337,306.329865 316.601837,319.585480 331.390717,337.423706 
	C345.611755,354.576904 354.239014,374.875244 363.252655,394.940582 
	C384.275848,441.740570 403.025726,489.520630 424.221558,536.246948 
	C436.539215,563.401245 448.297455,590.835815 465.386963,615.509949 
	C478.166565,633.961487 492.522797,650.932556 510.528564,664.604797 
	C513.724365,667.031433 515.855103,667.176147 519.129639,664.572510 
	C546.450073,642.849487 565.760315,614.914246 581.527588,584.290039 
	C586.628235,574.383484 590.758118,563.977051 595.331299,553.798950 
	C595.989502,552.334045 596.155823,550.574951 597.601013,549.646667 
	C599.516968,549.837341 599.667908,551.380005 600.220703,552.507263 
	C603.448059,559.088135 606.379456,565.830627 609.930603,572.230042 
	C612.092102,576.125427 612.134460,579.470215 610.478149,583.521790 
	C601.448792,605.608521 588.725952,625.470398 574.381897,644.385864 
	C558.752075,664.996948 540.287292,682.639099 519.148010,697.551636 
	C515.732910,699.960815 513.434998,699.963379 509.989349,697.429321 
	C469.886047,667.935852 440.218262,629.820007 418.598206,585.437805 
	C397.150757,541.410034 378.145660,496.258850 359.257507,451.075562 
	C346.987823,421.724640 335.394836,392.020905 319.020477,364.616211 
	C306.211212,343.178314 288.091919,328.189911 263.396301,322.044006 
	C261.486237,321.568665 259.588715,320.824310 256.768524,321.773651 
	C263.444336,327.411896 268.819366,333.663940 273.239563,340.689606 
	C283.939117,357.695892 291.401703,376.273895 299.184906,394.673065 
	C326.564728,459.397736 353.446503,524.331726 382.997314,588.121460 
	C403.190063,631.710510 429.575531,670.761475 465.133789,703.313416 
	C479.420166,716.391968 494.765350,728.112122 511.052185,738.622620 
	C514.174744,740.637695 516.456299,740.682861 519.547546,738.589111 
	C561.635010,710.082458 597.700378,675.859558 622.526855,630.860657 
	C626.147644,624.297791 629.943970,617.831726 633.669495,611.326782 
	C634.399170,610.052795 634.860535,608.525574 637.145142,607.912659 
	C642.036377,613.836609 648.013733,619.074097 653.912415,624.396606 
	C655.475037,625.806641 654.913147,627.354980 654.071411,628.929382 
	C652.029236,632.748718 650.266846,636.739624 647.962097,640.390259 
	C645.844788,643.743958 646.623840,646.062744 649.207642,648.675598 
	C661.974976,661.586243 676.403625,672.142395 692.638794,680.304382 
	C715.992676,692.045288 740.579956,695.910889 766.407043,692.350525 
	C767.681335,692.174805 769.017273,691.554077 770.688416,693.332153 
	C768.112793,698.237671 764.704773,702.851868 760.822144,707.071533 
	C732.799500,737.526855 698.203125,747.743835 657.935364,740.226746 
	C654.178284,739.525391 650.404663,738.721375 646.786011,737.521057 
	C642.925415,736.240479 640.916443,736.995789 639.190247,741.017639 
	C628.866150,765.071594 612.295349,783.670349 589.483887,796.621094 
	C578.909546,802.624512 568.376892,808.704773 557.723572,814.565125 
	C541.639832,823.412720 526.852905,833.722778 516.710327,849.519897 
	C515.414978,851.537415 513.656799,852.643494 512.086853,850.049438 
	C500.024170,830.117310 480.539215,819.470642 460.945190,808.945435 
	C451.695221,803.976624 442.578094,798.797058 433.795868,793.019531 
	C415.063385,780.696045 402.234406,763.657471 393.657471,743.188599 
	C390.809631,736.392273 390.842224,736.352051 383.755646,738.413696 
	C338.421448,751.601990 288.435394,734.616516 260.554321,696.524170 
	C259.700195,695.357239 258.417603,694.346191 258.662354,692.068237 
	C263.153168,690.931824 267.644775,692.703857 272.086365,693.063171 
	C299.101135,695.248718 323.893646,688.503845 347.222595,675.269104 
	C359.776703,668.146973 370.958923,659.277954 381.267090,649.231812 
	C383.132355,647.414001 384.083832,645.860352 382.379395,643.237122 
	C364.301727,615.414429 352.720886,584.385742 338.859253,554.489258 
	C332.220428,540.170837 332.514618,539.981750 316.923035,539.952271 
	C291.257599,539.903809 265.592010,539.931580 239.926468,539.926270 
	C236.759964,539.925659 233.593216,539.942810 230.426987,539.911316 
	C217.339645,539.781189 217.292084,539.756897 212.434082,552.259399 
	C207.487396,564.990051 202.666824,577.769775 197.756683,590.514709 
	C189.047531,613.120422 203.363297,625.928040 222.856415,628.815125 
	C225.516037,629.208984 229.227478,627.701477 230.539200,630.906799 
	C231.986359,634.443115 231.313721,638.466187 230.542465,642.231140 
	C230.079391,644.491638 228.182877,644.712524 226.228210,644.705078 
	C193.579025,644.580322 160.929657,644.494385 128.280762,644.317993 
	C125.379662,644.302307 121.640808,645.605347 120.967819,640.637146 
	C119.868835,632.524048 120.872787,629.951782 126.468063,628.559387 
	C140.603607,625.041382 151.069534,617.264404 158.577637,604.419922 
	C171.862976,581.691833 180.651031,557.053650 190.696274,532.933350 
	C193.320511,526.632141 195.839935,520.287170 198.554657,513.608887 
M541.628601,794.076294 
	C556.369812,786.394409 571.834595,780.062683 585.061890,769.611816 
	C598.003479,759.386719 608.323303,747.334473 614.260315,731.738098 
	C615.478271,728.538452 615.351929,726.611755 612.168091,724.794373 
	C608.420105,722.655151 604.954590,720.012817 601.412292,717.523560 
	C594.067322,712.362183 594.126648,712.397522 587.342041,718.394104 
	C568.218445,735.296326 548.452454,751.411255 526.102661,763.898071 
	C511.895966,771.835266 517.509949,772.142761 503.142975,763.820129 
	C480.555359,750.735352 460.196136,734.611084 441.420105,716.528198 
	C438.178467,713.406189 435.848938,713.497559 432.475830,715.918518 
	C428.291077,718.921936 423.791473,721.490784 419.395660,724.195068 
	C412.941315,728.165649 412.905945,728.157288 416.225220,734.920898 
	C426.428253,755.711609 442.453552,770.792969 462.592865,781.682556 
	C479.420227,790.781250 497.087830,798.450317 511.839264,811.009521 
	C514.347900,813.145447 516.081787,811.723694 517.902100,810.155090 
	C524.999512,804.038391 532.764893,798.905823 541.628601,794.076294 
M274.499969,514.728516 
	C289.680023,514.728516 304.860077,514.728516 320.904602,514.728516 
	C304.591003,476.552551 288.828278,439.665771 273.065582,402.779022 
	C272.576019,402.827332 272.086456,402.875641 271.596863,402.923950 
	C257.179871,439.854156 242.762878,476.784363 227.950348,514.727722 
	C243.961319,514.727722 258.730621,514.727722 274.499969,514.728516 
M695.709167,708.920898 
	C671.527893,699.515015 650.708252,684.869324 631.717407,666.653076 
	C624.899170,676.215820 618.664062,684.960693 612.456848,693.666443 
	C635.677612,713.205688 679.732239,723.165283 706.052612,712.837646 
	C702.530334,711.506653 699.477356,710.352966 695.709167,708.920898 
M417.653564,693.404114 
	C412.936462,684.371033 405.938934,676.946411 400.173340,668.652588 
	C399.704376,667.977966 399.021790,667.436951 397.339722,667.712769 
	C377.157471,687.844421 353.515564,703.655029 324.636139,711.759705 
	C327.265228,713.933167 329.600128,714.208618 331.831665,714.611389 
	C349.158844,717.739319 366.311127,716.861511 383.076782,711.514893 
	C395.444153,707.570984 407.467987,702.733765 417.653564,693.404114 
z"/>
<path fill="currentColor" opacity="1.000000" stroke="none" 
	d="
M759.733826,206.280243 
	C752.696289,199.040878 744.529114,196.169220 734.975647,198.473618 
	C725.334778,200.799088 719.373291,210.866470 722.164246,219.537186 
	C724.649780,227.259201 729.618225,229.704163 737.260803,226.963348 
	C738.617981,226.476654 740.040649,225.196365 741.403992,226.502258 
	C742.845947,227.883392 742.002136,229.636032 741.473206,231.187729 
	C738.254883,240.629593 726.580505,244.815201 715.870911,240.394104 
	C704.551941,235.721466 698.395325,222.472168 701.069641,208.540863 
	C705.645874,184.701248 730.821838,170.871918 754.177185,179.064911 
	C779.288147,187.873779 789.160645,210.663788 788.826660,231.168594 
	C788.430725,255.475113 773.702026,273.441315 750.371582,280.167297 
	C733.276672,285.095703 715.675171,288.410675 699.462158,296.175293 
	C678.811096,306.065399 661.949951,320.174530 650.253601,340.077637 
	C649.257690,341.772369 648.456604,343.581604 647.226624,346.004211 
	C649.940063,345.326843 651.185181,343.825500 652.512268,342.486267 
	C678.907410,315.850525 711.355713,301.824493 748.043579,296.670837 
	C780.431885,292.121124 812.257935,294.416046 843.047913,305.766113 
	C862.399109,312.899597 879.806091,323.413788 892.144714,340.478119 
	C903.870728,356.695251 910.177124,374.671356 906.143127,394.985382 
	C902.352600,414.072906 889.505676,425.551239 870.184570,427.744568 
	C853.643311,429.622314 837.181458,417.754578 835.401794,402.332245 
	C834.431702,393.925537 836.991943,386.840973 844.923950,382.528046 
	C845.948425,381.971008 846.927063,381.313110 847.990356,380.846680 
	C863.094543,374.220917 862.697449,360.850983 856.939087,349.433624 
	C853.714783,343.040588 848.526550,338.286896 842.183716,334.922272 
	C823.419189,324.968292 803.695923,324.307953 783.373718,328.734711 
	C751.007568,335.784973 728.718445,356.082611 712.187744,383.452240 
	C692.970642,415.269958 686.097839,450.026123 688.903992,486.965607 
	C690.858215,512.690552 697.997498,536.705322 711.542908,558.651306 
	C730.702454,589.693298 757.695862,609.274109 794.706787,612.353882 
	C817.334229,614.236816 838.181274,607.705139 857.088440,595.080994 
	C870.349304,586.226868 881.022583,574.928162 888.943848,561.130432 
	C891.228394,557.151184 893.335449,556.287903 897.077209,559.234680 
	C900.076111,561.596375 903.353210,563.655884 906.688782,565.524780 
	C910.207153,567.496094 910.580566,569.697021 908.771179,573.246765 
	C895.220154,599.832153 875.985352,620.878479 849.296082,634.688660 
	C816.853210,651.475952 782.380493,654.985229 746.737610,649.718994 
	C719.720886,645.727173 694.231628,637.326233 671.629700,621.523743 
	C651.011841,607.108459 635.669739,588.028015 623.393066,566.274658 
	C603.683716,531.351379 598.434021,493.638000 601.596863,454.278381 
	C601.916504,450.300415 602.245605,446.319946 602.719543,442.358521 
	C603.189880,438.427124 603.848816,434.518280 603.750610,430.315948 
	C596.262146,444.717407 588.759583,459.111572 581.289429,473.522522 
	C574.625549,486.377960 567.482727,498.990448 562.865784,512.831543 
	C559.989136,521.455444 558.424072,530.248596 558.317993,539.274841 
	C558.145691,553.938477 557.681580,568.630493 558.356750,583.263550 
	C559.040405,598.081421 553.040710,609.751343 543.564880,620.193420 
	C540.140625,623.966797 536.619629,627.726257 532.566895,630.672913 
	C529.979126,629.267700 530.793274,627.204834 530.796204,625.538513 
	C530.844360,598.208374 531.231445,570.875854 530.980042,543.549072 
	C530.778870,521.672668 536.340942,501.632019 546.577087,482.340485 
	C571.561707,435.253418 595.874451,387.810394 620.617615,340.594452 
	C627.499390,327.462402 634.713013,314.494263 645.470215,303.919861 
	C665.057495,284.665619 688.765442,273.202850 715.170288,266.833282 
	C726.488098,264.103119 738.080322,262.387665 748.659912,257.104218 
	C768.431763,247.230179 773.624695,224.078751 759.733826,206.280243 
M701.532776,609.950989 
	C712.338928,615.054504 723.054993,620.432434 736.450989,621.762024 
	C642.806274,561.382080 631.598267,408.138519 723.575256,328.353210 
	C718.041565,329.807220 713.083374,331.585785 708.343384,333.960907 
	C672.883484,351.729218 650.366272,380.715790 637.360596,417.393005 
	C626.790649,447.201416 625.472534,477.896820 631.070435,508.980042 
	C639.030640,553.180786 661.424194,587.296570 701.532776,609.950989 
z"/>
<path fill="currentColor" opacity="1.000000" stroke="none" 
	d="
M359.547241,227.378448 
	C346.588287,191.400986 330.805695,157.046005 315.172974,122.625885 
	C312.377777,116.471397 309.800964,110.217720 307.326416,104.480690 
	C308.226532,103.045815 308.919220,103.028870 309.536346,103.293053 
	C320.963989,108.184967 331.899170,114.012039 339.975098,123.686432 
	C343.524445,127.938316 346.445831,129.227249 351.670471,126.827698 
	C357.856415,123.986664 364.345276,124.688049 370.510925,127.691032 
	C374.218201,129.496658 375.371460,131.696915 372.676147,135.527557 
	C368.030792,142.129562 364.654633,149.377182 363.662292,157.505127 
	C362.383362,167.980362 364.673157,177.643234 372.303955,185.093033 
	C385.915741,198.381989 405.972626,193.869308 414.300568,176.011856 
	C417.290649,169.600342 418.997131,162.822205 419.503326,155.798187 
	C420.042755,148.313736 415.599091,143.270432 410.295471,138.979858 
	C402.817047,132.929855 402.487579,134.277893 406.127808,123.603157 
	C408.792542,115.788910 411.795502,108.089981 414.478760,100.798676 
	C417.246887,100.353783 418.139771,101.743469 419.145874,102.772636 
	C425.317200,109.085556 431.399963,115.485596 437.610504,121.759346 
	C439.410614,123.577797 439.911774,125.325035 438.473541,127.505905 
	C438.291504,127.781982 438.191986,128.111206 438.022980,128.397308 
	C432.279938,138.118774 431.692780,147.657593 438.161865,157.479233 
	C445.422852,168.503235 454.260712,177.344162 468.028564,178.598053 
	C483.951447,180.048203 497.424347,164.150879 494.325317,147.885910 
	C491.604553,133.606033 483.959167,122.665413 470.466797,116.638741 
	C465.932312,114.613312 465.337158,112.539238 467.492004,108.343575 
	C471.725891,100.099731 478.135101,94.383263 486.482208,90.681885 
	C488.650299,89.720490 490.706970,88.937263 491.106598,86.071938 
	C492.807648,73.874680 499.369659,63.674076 504.955261,53.097088 
	C507.643066,48.007385 510.688446,43.106506 513.483398,38.273220 
	C514.431213,38.529976 514.911255,38.515961 515.019958,38.709995 
	C523.461853,53.772655 533.543152,68.097565 536.987305,85.458359 
	C537.653137,88.814720 539.774963,89.688110 542.252441,90.639328 
	C551.026733,94.008133 557.506042,99.798836 561.882874,108.198586 
	C564.045837,112.349594 563.831604,114.396324 559.070557,116.444679 
	C541.635132,123.945969 531.866089,142.416153 535.838867,159.368576 
	C539.359741,174.392609 552.451965,182.138351 567.007507,177.258957 
	C581.063904,172.546906 590.077454,162.349045 595.038025,148.671677 
	C597.428467,142.080872 595.049927,135.765274 591.466675,130.165604 
	C589.046448,126.383362 589.378174,123.800415 592.628540,120.679413 
	C598.028809,115.494057 602.943909,109.806259 608.145203,104.408966 
	C609.487000,103.016602 610.516235,101.136139 612.610962,100.737801 
	C614.071960,101.050278 614.479492,102.257729 614.888062,103.292625 
	C618.310730,111.962830 621.938293,120.553665 624.461426,129.562317 
	C625.240906,132.345383 624.878296,134.368607 622.558960,136.137085 
	C617.132080,140.275040 610.989258,144.127182 610.237244,151.692505 
	C609.207825,162.047485 610.995728,171.993835 616.883118,180.827789 
	C620.507202,186.265732 625.442871,190.124069 631.890686,191.760406 
	C642.979980,194.574677 654.302124,189.964600 660.298523,180.027054 
	C667.905212,167.420792 667.116760,154.692535 660.455322,141.992722 
	C659.838318,140.816406 659.053101,139.726578 658.322998,138.611664 
	C653.204773,130.795685 653.956360,128.836319 663.013977,126.070473 
	C668.889221,124.276413 674.644104,124.859322 680.039062,127.448845 
	C683.457703,129.089737 685.419067,128.295959 687.622742,125.483749 
	C695.892212,114.930290 707.247681,108.681938 719.258545,103.438217 
	C719.795227,103.203911 720.477966,103.304085 721.115784,103.246376 
	C722.183472,105.675034 720.577698,107.278648 719.813293,108.984314 
	C701.836548,149.099289 683.310730,188.980972 668.401489,230.393951 
	C666.371338,236.033066 664.356079,241.683884 662.579102,247.405426 
	C661.492737,250.903290 659.615845,251.692627 656.195984,250.668182 
	C636.069702,244.639221 615.651917,239.793900 594.838745,236.882828 
	C558.796997,231.841812 522.593079,229.722580 486.208435,231.789139 
	C455.735535,233.519928 425.490295,236.979843 395.757111,244.113770 
	C388.148895,245.939209 380.554901,247.883530 373.080078,250.182068 
	C368.905823,251.465668 366.981964,250.292374 365.789948,246.246429 
	C363.955719,240.021027 361.720703,233.913742 359.547241,227.378448 
z"/>
<path fill="currentColor" opacity="1.000000" stroke="none" 
	d="
M464.352020,445.704590 
	C470.321899,457.397034 476.125244,468.759827 482.468201,481.179138 
	C485.687195,474.502045 488.325287,468.999084 490.989380,463.508759 
	C514.990417,414.045807 540.900452,365.559326 566.088623,316.703644 
	C566.317627,316.259460 566.514771,315.791656 566.796326,315.382812 
	C571.910400,307.957550 571.251770,301.466675 564.529236,295.088867 
	C560.900818,291.646484 557.937805,287.324554 555.806702,282.543884 
	C561.623840,280.508301 611.301575,287.263855 616.814819,290.618134 
	C617.071960,292.524963 615.751831,293.748413 614.637390,294.881714 
	C599.333191,310.445465 589.354797,329.496002 579.382080,348.552124 
	C559.299988,386.925079 539.671875,425.528595 520.529114,464.379120 
	C511.817200,482.059967 504.147797,500.097717 500.906494,519.716675 
	C499.216400,529.946350 499.066528,540.268188 499.028381,550.591797 
	C498.942230,573.900452 498.933716,597.209473 498.866333,620.518250 
	C498.856384,623.959167 499.029541,627.447693 497.668854,630.605103 
	C495.825714,631.139038 494.909058,630.101807 494.021118,629.114990 
	C489.116333,623.664062 484.300781,618.140015 480.056335,612.143005 
	C474.991028,604.986328 472.527557,597.162292 472.695984,588.274780 
	C472.973785,573.616150 472.295288,558.931091 472.844910,544.288147 
	C473.495392,526.956360 469.128571,511.233826 461.152039,495.947540 
	C438.729858,452.977692 416.823029,409.739166 394.646881,366.640625 
	C389.236328,356.125397 383.590851,345.749268 376.808624,336.003082 
	C359.622650,311.306549 335.334442,297.092194 307.268707,288.325317 
	C297.259552,285.198730 286.920776,283.327271 276.949371,279.993317 
	C233.980438,265.626495 232.523956,220.372025 249.796768,196.133820 
	C267.567657,171.196686 305.499603,170.078842 321.590454,194.341705 
	C329.004028,205.520370 330.903961,217.457779 324.485840,229.795380 
	C318.236725,241.808090 302.864166,245.790176 292.463013,238.192642 
	C288.428589,235.245682 285.995483,231.337784 286.409424,226.304428 
	C288.436157,225.259369 289.513000,226.336685 290.708984,226.791901 
	C294.975189,228.415726 299.186768,228.941574 302.887909,225.586807 
	C306.914246,221.937225 308.484222,217.400482 307.054932,212.039459 
	C303.561249,198.935196 289.209076,193.597610 276.433929,200.586517 
	C265.405670,206.619797 261.289398,216.563278 261.070648,228.419327 
	C260.849274,240.419983 266.182587,249.546051 276.549255,255.665405 
	C285.158447,260.747314 294.703430,262.950867 304.370117,264.943970 
	C339.345367,272.155151 369.629150,287.832855 393.031586,315.321411 
	C401.263428,324.990570 407.382874,336.159393 413.241180,347.400696 
	C430.252594,380.043182 447.208099,412.714752 464.352020,445.704590 
z"/>
<path fill="currentColor" opacity="1.000000" stroke="none" 
	d="
M467.066040,244.818390 
	C487.139130,243.423828 506.756500,242.221786 526.429565,242.848877 
	C569.189087,244.211868 611.398560,249.231262 652.521240,261.658051 
	C656.369934,262.821106 657.781555,264.427704 656.604492,268.421326 
	C655.667542,271.600067 655.275879,274.942993 654.696594,278.222687 
	C654.182617,281.133087 652.808289,282.134918 649.790894,281.147034 
	C619.687439,271.291016 588.582642,266.668793 557.140564,264.505280 
	C528.544128,262.537506 499.916443,262.681152 471.266724,264.846375 
	C446.642975,266.707367 422.274292,269.863159 398.204407,275.313477 
	C392.199219,276.673279 386.223999,278.208984 380.316650,279.942047 
	C376.306427,281.118591 373.780823,280.593323 373.562073,275.830200 
	C373.524445,275.010193 373.210846,274.205078 373.049866,273.388123 
	C370.625854,261.087097 368.908234,263.432098 381.643158,259.722748 
	C409.406189,251.636139 437.902496,247.631729 467.066040,244.818390 
z"/>
<path fill="currentColor" opacity="1.000000" stroke="none" 
	d="
M445.058716,283.899109 
	C454.673706,283.267365 463.756287,281.089355 473.898071,281.856598 
	C471.371368,287.507874 468.226013,291.835602 464.831635,295.721924 
	C459.650024,301.654572 459.236847,307.041840 462.860321,314.152527 
	C476.469238,340.858734 490.031067,367.594208 504.563965,393.801910 
	C508.281067,400.505005 508.703613,405.683197 504.439819,411.983856 
	C500.850403,417.288055 498.203461,423.230072 495.026794,429.097473 
	C491.123505,426.765594 490.140167,423.267365 488.591034,420.274292 
	C474.889008,393.800415 461.067444,367.385101 447.701721,340.741516 
	C438.792023,322.980621 428.165649,306.667633 412.692291,293.886658 
	C412.057800,293.362549 411.487915,292.728271 411.011505,292.057556 
	C410.750214,291.689728 410.747620,291.138092 410.424835,289.869019 
	C421.673370,286.703888 433.274323,285.989075 445.058716,283.899109 
z"/>
</svg>